<svg width="199" height="49" viewBox="0 0 199 49" fill="none" xmlns="http://www.w3.org/2000/svg">
<path d="M0.205933 31.382V4.88111H5.07923V14.7983H7.87976V4.88129H12.7525V31.3818H7.87976V20.1048H5.07923V31.382H0.205933Z" fill="white"/>
<path d="M0.205933 31.382V4.88111H5.07923V14.7983H7.87976V4.88129H12.7525V31.3818H7.87976V20.1048H5.07923V31.382H0.205933Z" stroke="white" stroke-width="0.082642" stroke-miterlimit="2.613"/>
<path d="M19.8879 8.43562V7.7719C19.8879 7.30773 20.2937 6.53399 21.1052 5.44467C21.2814 5.22272 21.4254 4.97702 21.533 4.71483C21.6368 4.46425 21.6907 4.1958 21.6916 3.92457C21.6916 3.56525 21.6475 3.32214 21.5552 3.18389C21.5063 3.057 21.3392 2.97953 21.0523 2.95749C20.4704 2.95749 20.1791 3.33334 20.1791 4.08521V4.88098H18.3795V3.92474C18.3795 3.18957 18.6003 2.53739 19.0414 1.96217C19.5529 1.32118 20.2497 1.00059 21.1272 1.00059C21.8903 1.00059 22.512 1.23268 22.9837 1.69703C23.4603 2.1612 23.7029 2.85797 23.7029 3.78649C23.7029 4.62668 23.3413 5.42263 22.6177 6.1745C21.8768 6.92637 21.5063 7.67824 21.5063 8.43544L19.8879 8.43562ZM21.6346 20.7352L20.3642 21.902C19.8352 22.4045 19.5704 23.0348 19.5704 23.7871V26.6058C19.5704 27.7334 19.9055 28.2976 20.5716 28.2976C20.8932 28.2976 21.158 28.1314 21.37 27.8055C21.5463 27.4016 21.6346 26.9485 21.6346 26.4399V20.7352ZM26.0269 31.382H21.846V29.7567C21.0568 31.1277 19.9583 31.8131 18.5648 31.8131C17.0655 31.8131 16.0337 31.161 15.4692 29.8616C15.0634 28.9053 14.8607 27.4016 14.8607 25.3511C14.8607 23.5545 15.2221 22.1394 15.9454 21.0945C16.4528 20.3485 17.2374 19.6851 18.2959 19.1042C19.6412 18.4467 20.4129 18.0044 20.6069 17.7833C21.2904 17.2086 21.6348 16.4233 21.6348 15.4283C21.6348 14.8703 21.5638 14.4277 21.4273 14.1016C21.2684 13.792 20.9819 13.6374 20.5716 13.6374C19.7956 13.6374 19.4072 14.1346 19.4072 15.1301V16.8546H15.1779V14.9254C15.1779 13.3609 15.6806 12.1008 16.6818 11.1499C17.6919 10.1995 18.9706 9.72363 20.5232 9.72363C22.5342 9.72363 23.9543 10.2434 24.7876 11.2881C25.6123 12.3215 26.0269 14.0243 26.0269 16.3959V31.382Z" fill="white"/>
<path d="M19.8879 8.43562V7.7719C19.8879 7.30773 20.2937 6.53399 21.1052 5.44467C21.2814 5.22272 21.4254 4.97702 21.533 4.71483C21.6368 4.46425 21.6907 4.1958 21.6916 3.92457C21.6916 3.56525 21.6475 3.32214 21.5552 3.18389C21.5063 3.057 21.3392 2.97953 21.0523 2.95749C20.4704 2.95749 20.1791 3.33334 20.1791 4.08521V4.88098H18.3795V3.92474C18.3795 3.18957 18.6003 2.53739 19.0414 1.96217C19.5529 1.32118 20.2497 1.00059 21.1272 1.00059C21.8903 1.00059 22.512 1.23268 22.9837 1.69703C23.4603 2.1612 23.7029 2.85797 23.7029 3.78649C23.7029 4.62668 23.3413 5.42263 22.6177 6.1745C21.8768 6.92637 21.5063 7.67824 21.5063 8.43545L19.8879 8.43562ZM21.6346 20.7352L20.3642 21.902C19.8352 22.4045 19.5704 23.0348 19.5704 23.7871V26.6058C19.5704 27.7334 19.9055 28.2976 20.5716 28.2976C20.8932 28.2976 21.158 28.1314 21.37 27.8055C21.5463 27.4016 21.6346 26.9485 21.6346 26.4399V20.7352ZM26.0269 31.382H21.846V29.7567C21.0568 31.1277 19.9583 31.8131 18.5648 31.8131C17.0655 31.8131 16.0337 31.161 15.4692 29.8616C15.0634 28.9053 14.8607 27.4016 14.8607 25.3511C14.8607 23.5545 15.2221 22.1394 15.9454 21.0945C16.4528 20.3485 17.2374 19.6851 18.2959 19.1042C19.6412 18.4467 20.4129 18.0044 20.6069 17.7833C21.2904 17.2086 21.6348 16.4233 21.6348 15.4283C21.6348 14.8703 21.5638 14.4277 21.4273 14.1016C21.2684 13.792 20.9819 13.6374 20.5716 13.6374C19.7956 13.6374 19.4072 14.1346 19.4072 15.1301V16.8546H15.1779V14.9254C15.1779 13.3609 15.6806 12.1008 16.6818 11.1499C17.6919 10.1995 18.9706 9.72363 20.5232 9.72363C22.5342 9.72363 23.9543 10.2434 24.7876 11.2881C25.6123 12.3215 26.0269 14.0243 26.0269 16.3959V31.382Z" stroke="white" stroke-width="0.082642" stroke-miterlimit="2.613"/>
<path d="M28.4612 8.7949V4.88111H33.017V8.7949H28.4612ZM28.4612 31.382V10.1878H33.017V31.382H28.4612Z" fill="white"/>
<path d="M28.4612 8.7949V4.88111H33.017V8.7949H28.4612ZM28.4612 31.382V10.1878H33.017V31.382H28.4612Z" stroke="white" stroke-width="0.082642" stroke-miterlimit="2.613"/>
<path d="M42.1146 24.1515V12.1117C42.1146 9.61319 42.7052 7.68936 43.8873 6.34591C44.9987 5.08011 46.4984 4.44996 48.3903 4.44996C50.26 4.44996 51.7772 5.10249 52.9414 6.41237C54.0881 7.7114 54.6614 9.61302 54.6614 12.1117V24.1516C54.6614 27.0923 53.7439 29.2815 51.9049 30.7186L53.7881 34.5327L49.8413 35.0358L49.1223 33.3774L48.4123 31.8131C47.4245 31.8131 46.5466 31.6469 45.7925 31.321C45.0341 30.9837 44.3639 30.4643 43.7816 29.7567C42.6702 28.3855 42.1146 26.5173 42.1146 24.1515ZM46.9879 11.5864V24.6876C46.9879 25.4782 47.0936 26.0975 47.3056 26.5396C47.5124 26.9153 47.8741 27.1087 48.3903 27.1087C48.9681 27.1087 49.3737 26.7938 49.6032 26.1746C49.7265 25.7103 49.7885 25.2131 49.7885 24.6876V11.5863C49.7885 10.9455 49.7351 10.431 49.6249 10.0553C49.4176 9.46375 49.0034 9.16521 48.3903 9.16521C47.808 9.16521 47.4025 9.45273 47.1685 10.0223C47.0496 10.4864 46.9879 11.0061 46.9879 11.5864Z" fill="white"/>
<path d="M42.1146 24.1515V12.1117C42.1146 9.61319 42.7052 7.68936 43.8873 6.34591C44.9987 5.08011 46.4984 4.44996 48.3903 4.44996C50.26 4.44996 51.7772 5.10249 52.9414 6.41237C54.0881 7.7114 54.6614 9.61302 54.6614 12.1117V24.1516C54.6614 27.0923 53.7439 29.2815 51.9049 30.7186L53.7881 34.5327L49.8413 35.0358L49.1223 33.3774L48.4123 31.8131C47.4245 31.8131 46.5466 31.6469 45.7925 31.321C45.0341 30.9837 44.3639 30.4643 43.7816 29.7567C42.6702 28.3855 42.1146 26.5173 42.1146 24.1515ZM46.9879 11.5864V24.6876C46.9879 25.4782 47.0936 26.0975 47.3056 26.5396C47.5124 26.9153 47.8741 27.1087 48.3903 27.1087C48.9681 27.1087 49.3737 26.7938 49.6032 26.1746C49.7265 25.7103 49.7885 25.2131 49.7885 24.6876V11.5863C49.7885 10.9455 49.7351 10.431 49.6249 10.0553C49.4176 9.46375 49.0034 9.16521 48.3903 9.16521C47.808 9.16521 47.4025 9.45273 47.1685 10.0223C47.0496 10.4864 46.9879 11.0061 46.9879 11.5864Z" stroke="white" stroke-width="0.082642" stroke-miterlimit="2.613"/>
<path d="M67.9364 10.188V31.382H63.5352V29.0274C63.081 29.9559 62.5917 30.6631 62.0625 31.1498C61.5157 31.5921 60.8363 31.8132 60.025 31.8132C58.9665 31.8132 58.1594 31.382 57.6124 30.5248C57.048 29.6626 56.766 28.5738 56.766 27.2691V10.188H61.3213V24.682C61.3213 25.3731 61.3566 25.7985 61.4315 25.9702C61.5906 26.4566 61.8948 26.7002 62.3534 26.7002C62.7722 26.7002 63.0678 26.4235 63.2443 25.876C63.3367 25.495 63.3808 25.1025 63.3808 24.682V10.188H67.9364Z" fill="white"/>
<path d="M67.9364 10.188V31.382H63.5352V29.0274C63.081 29.9559 62.5917 30.6631 62.0625 31.1498C61.5157 31.5921 60.8363 31.8132 60.025 31.8132C58.9665 31.8132 58.1594 31.382 57.6124 30.5248C57.048 29.6626 56.766 28.5738 56.766 27.2691V10.188H61.3213V24.682C61.3213 25.3731 61.3566 25.7985 61.4315 25.9702C61.5906 26.4566 61.8948 26.7002 62.3534 26.7002C62.7722 26.7002 63.0678 26.4235 63.2443 25.876C63.3367 25.495 63.3808 25.1025 63.3808 24.682V10.188H67.9364Z" stroke="white" stroke-width="0.082642" stroke-miterlimit="2.613"/>
<path d="M76.7744 20.7351L75.5043 21.9019C74.9753 22.4045 74.7105 23.0348 74.7105 23.787V26.6058C74.7105 27.7333 75.046 28.2975 75.7115 28.2975C76.0336 28.2975 76.2981 28.1314 76.5098 27.8055C76.6863 27.4015 76.7746 26.9484 76.7746 26.4398L76.7744 20.7351ZM71.6679 8.56261L73.8637 4.05174H77.5947L79.5001 8.56261H76.7479L75.5837 6.04203L74.2563 8.56261H71.6679ZM81.1672 31.382H76.986V29.7567C76.1968 31.1277 75.0985 31.8131 73.7048 31.8131C72.2056 31.8131 71.1736 31.1609 70.6092 29.8615C70.2034 28.9053 70.0007 27.4015 70.0007 25.351C70.0007 23.5544 70.3619 22.1393 71.0854 21.0944C71.5928 20.3484 72.3774 19.685 73.4359 19.1041C74.7812 18.4466 75.5529 18.0043 75.7468 17.7832C76.4303 17.2085 76.7746 16.4232 76.7746 15.4283C76.7746 14.8703 76.7039 14.4276 76.5673 14.1015C76.4082 13.792 76.1219 13.6373 75.7116 13.6373C74.9357 13.6373 74.5472 14.1346 74.5472 15.1301V16.8545H70.3182V14.9254C70.3182 13.3608 70.8208 12.1007 71.8218 11.1498C72.8319 10.1994 74.1106 9.72356 75.6633 9.72356C77.6742 9.72356 79.0943 10.2433 79.9276 11.2881C80.7523 12.3214 81.1672 14.0242 81.1672 16.3959V31.382Z" fill="white"/>
<path d="M76.7744 20.7351L75.5043 21.9019C74.9753 22.4045 74.7105 23.0348 74.7105 23.787V26.6058C74.7105 27.7333 75.046 28.2975 75.7115 28.2975C76.0336 28.2975 76.2981 28.1314 76.5098 27.8055C76.6863 27.4015 76.7746 26.9484 76.7746 26.4398L76.7744 20.7351ZM71.6679 8.56261L73.8637 4.05174H77.5947L79.5001 8.56261H76.7479L75.5837 6.04203L74.2563 8.56261H71.6679ZM81.1672 31.382H76.986V29.7567C76.1968 31.1277 75.0985 31.8131 73.7048 31.8131C72.2056 31.8131 71.1736 31.1609 70.6092 29.8615C70.2034 28.9053 70.0007 27.4015 70.0007 25.351C70.0007 23.5544 70.3619 22.1393 71.0854 21.0944C71.5928 20.3484 72.3774 19.685 73.4359 19.1041C74.7812 18.4466 75.5529 18.0043 75.7468 17.7832C76.4303 17.2085 76.7746 16.4232 76.7746 15.4283C76.7746 14.8703 76.7039 14.4276 76.5673 14.1015C76.4082 13.792 76.1219 13.6373 75.7116 13.6373C74.9357 13.6373 74.5472 14.1346 74.5472 15.1301V16.8545H70.3182V14.9254C70.3182 13.3608 70.8208 12.1007 71.8218 11.1498C72.8319 10.1994 74.1106 9.72356 75.6633 9.72356C77.6742 9.72356 79.0943 10.2433 79.9276 11.2881C80.7523 12.3214 81.1672 14.0242 81.1672 16.3959V31.382Z" stroke="white" stroke-width="0.082642" stroke-miterlimit="2.613"/>
<path d="M83.2258 31.382V10.1878H87.6269V12.5373C88.0284 11.7246 88.5046 11.0394 89.0512 10.4867C89.6642 9.99465 90.3611 9.75154 91.1374 9.75154C92.2001 9.75154 93.0117 10.1713 93.576 11.0173C94.123 11.8572 94.3964 12.9522 94.3964 14.3008V31.3819H89.8408V16.8878C89.8408 16.2023 89.8055 15.771 89.7306 15.5943C89.5719 15.1078 89.2675 14.8645 88.8135 14.8645C88.3897 14.8645 88.0941 15.1412 87.9182 15.6992C87.8252 16.0695 87.7813 16.4677 87.7813 16.8878V31.382H83.2258Z" fill="white"/>
<path d="M83.2258 31.382V10.1878H87.6269V12.5373C88.0284 11.7246 88.5046 11.0394 89.0512 10.4867C89.6642 9.99465 90.3611 9.75154 91.1374 9.75154C92.2001 9.75154 93.0117 10.1713 93.576 11.0173C94.123 11.8572 94.3964 12.9522 94.3964 14.3008V31.3819H89.8408V16.8878C89.8408 16.2023 89.8055 15.771 89.7306 15.5943C89.5719 15.1078 89.2675 14.8645 88.8135 14.8645C88.3897 14.8645 88.0941 15.1412 87.9182 15.6992C87.8252 16.0695 87.7813 16.4677 87.7813 16.8878V31.382H83.2258Z" stroke="white" stroke-width="0.082642" stroke-miterlimit="2.613"/>
<path d="M105.449 31.382L102.225 4.88111H107.204L108.527 23.7204L110.194 4.88111H115.089L111.491 31.382H105.449Z" fill="white"/>
<path d="M105.449 31.382L102.225 4.88111H107.204L108.527 23.7204L110.194 4.88111H115.089L111.491 31.382H105.449Z" stroke="white" stroke-width="0.082642" stroke-miterlimit="2.613"/>
<path d="M116.677 8.7949V4.88111H121.232V8.7949H116.677ZM116.677 31.382V10.1878H121.232V31.382H116.677Z" fill="white"/>
<path d="M116.677 8.7949V4.88111H121.232V8.7949H116.677ZM116.677 31.382V10.1878H121.232V31.382H116.677Z" stroke="white" stroke-width="0.082642" stroke-miterlimit="2.613"/>
<path d="M126.939 33.9359H131.495V37.8494H126.939V33.9359ZM128.214 17.7168H130.273V15.4007C130.273 14.8427 130.238 14.4665 130.168 14.2678C129.991 13.8474 129.682 13.6429 129.241 13.6429C128.835 13.6429 128.553 13.809 128.394 14.1348C128.276 14.4942 128.214 14.9143 128.214 15.4007V17.7168ZM125.33 8.56261L127.521 4.05174H131.252L133.157 8.56261H130.402L129.241 6.04203L127.918 8.56261H125.33ZM123.658 15.7934C123.658 14.1792 124.02 12.8522 124.743 11.8073C125.696 10.4147 127.195 9.71788 129.246 9.71788C131.204 9.71788 132.703 10.4147 133.744 11.8073C134.467 12.8522 134.829 14.1792 134.829 15.7934V21.6305H128.214V26.1747C128.214 26.7273 128.249 27.103 128.324 27.3025C128.46 27.7003 128.769 27.8993 129.246 27.8993C129.669 27.8993 129.964 27.7113 130.141 27.3356C130.229 27.0481 130.273 26.6612 130.273 26.1747V23.5156H134.829V25.7768C134.829 27.3518 134.467 28.6675 133.744 29.7236C132.791 31.1168 131.292 31.8131 129.246 31.8131C127.283 31.8131 125.784 31.1168 124.743 29.7236C124.02 28.6899 123.658 27.3742 123.658 25.7823V15.7934Z" fill="white"/>
<path d="M126.939 33.9359H131.495V37.8494H126.939V33.9359ZM128.214 17.7168H130.273V15.4007C130.273 14.8427 130.238 14.4665 130.168 14.2678C129.991 13.8474 129.682 13.6429 129.241 13.6429C128.835 13.6429 128.553 13.809 128.394 14.1348C128.276 14.4942 128.214 14.9143 128.214 15.4007V17.7168ZM125.33 8.56261L127.521 4.05174H131.252L133.157 8.56261H130.402L129.241 6.04203L127.918 8.56261H125.33ZM123.658 15.7934C123.658 14.1792 124.02 12.8522 124.743 11.8073C125.696 10.4147 127.195 9.71788 129.246 9.71788C131.204 9.71788 132.703 10.4147 133.744 11.8073C134.467 12.8522 134.829 14.1792 134.829 15.7934V21.6305H128.214V26.1747C128.214 26.7273 128.249 27.103 128.324 27.3025C128.46 27.7003 128.769 27.8993 129.246 27.8993C129.669 27.8993 129.964 27.7113 130.141 27.3356C130.229 27.0481 130.273 26.6612 130.273 26.1747V23.5156H134.829V25.7768C134.829 27.3518 134.467 28.6675 133.744 29.7236C132.791 31.1168 131.292 31.8131 129.246 31.8131C127.283 31.8131 125.784 31.1168 124.743 29.7236C124.02 28.6899 123.658 27.3742 123.658 25.7823V15.7934Z" stroke="white" stroke-width="0.082642" stroke-miterlimit="2.613"/>
<path d="M137.237 27.9989V14.5386H136.099V10.4203H137.237V5.80986H141.793V10.4199H142.93V14.5384H141.793V25.8817L141.872 27.0757C141.92 27.3632 142.097 27.5068 142.401 27.5068H142.983V31.813H140.783C139.64 31.813 138.802 31.5919 138.269 31.1496C137.581 30.5749 137.237 29.5302 137.237 27.9989Z" fill="white"/>
<path d="M137.237 27.9989V14.5386H136.099V10.4203H137.237V5.80986H141.793V10.4199H142.93V14.5384H141.793V25.8817L141.872 27.0757C141.92 27.3632 142.097 27.5068 142.401 27.5068H142.983V31.813H140.783C139.64 31.813 138.802 31.5919 138.269 31.1496C137.581 30.5749 137.237 29.5302 137.237 27.9989Z" stroke="white" stroke-width="0.082642" stroke-miterlimit="2.613"/>
<path d="M150.917 31.382V4.88111H156.236L160.148 20.5087L160.205 4.88111H164.915V31.382H159.623L155.681 15.0027L155.627 31.382H150.917Z" fill="white"/>
<path d="M150.917 31.382V4.88111H156.236L160.148 20.5087L160.205 4.88111H164.915V31.382H159.623L155.681 15.0027L155.627 31.382H150.917Z" stroke="white" stroke-width="0.082642" stroke-miterlimit="2.613"/>
<path d="M173.81 26.4399V20.7352L172.54 21.902C172.011 22.4045 171.746 23.0349 171.746 23.7871V26.6059C171.746 27.7334 172.082 28.2976 172.748 28.2976C173.069 28.2976 173.334 28.1315 173.546 27.8055C173.722 27.4016 173.81 26.9485 173.81 26.4399ZM178.203 16.3903V31.382H174.022V29.7568C173.233 31.1277 172.134 31.8132 170.741 31.8132C169.241 31.8132 168.209 31.161 167.645 29.8616C167.239 28.9054 167.036 27.4016 167.036 25.3454C167.036 23.5545 167.398 22.1394 168.121 21.0945C168.628 20.3428 169.413 19.6794 170.472 19.099C171.817 18.441 172.589 18.0044 172.783 17.7833C173.466 17.2029 173.81 16.418 173.81 15.423C173.81 14.8645 173.74 14.4334 173.603 14.1295C173.444 13.8199 173.158 13.6653 172.748 13.6653C171.971 13.6653 171.583 14.1515 171.583 15.1245V16.8491H167.353V14.9201C167.353 13.3998 167.856 12.1559 168.857 11.183C169.867 10.2267 171.147 9.75154 172.699 9.75154C174.71 9.75154 176.13 10.2708 176.963 11.3155C177.788 12.3496 178.203 14.041 178.203 16.3903Z" fill="white"/>
<path d="M173.81 26.4399V20.7352L172.54 21.902C172.011 22.4045 171.746 23.0349 171.746 23.7871V26.6059C171.746 27.7334 172.082 28.2976 172.748 28.2976C173.069 28.2976 173.334 28.1315 173.546 27.8055C173.722 27.4016 173.81 26.9485 173.81 26.4399ZM178.203 16.3903V31.382H174.022V29.7568C173.233 31.1277 172.134 31.8132 170.741 31.8132C169.241 31.8132 168.209 31.161 167.645 29.8616C167.239 28.9054 167.036 27.4016 167.036 25.3454C167.036 23.5545 167.398 22.1394 168.121 21.0945C168.628 20.3428 169.413 19.6794 170.472 19.099C171.817 18.441 172.589 18.0044 172.783 17.7833C173.466 17.2029 173.81 16.418 173.81 15.423C173.81 14.8645 173.74 14.4334 173.603 14.1295C173.444 13.8199 173.158 13.6653 172.748 13.6653C171.971 13.6653 171.583 14.1515 171.583 15.1245V16.8491H167.353V14.9201C167.353 13.3998 167.856 12.1559 168.857 11.183C169.867 10.2267 171.147 9.75154 172.699 9.75154C174.71 9.75154 176.13 10.2708 176.963 11.3155C177.788 12.3496 178.203 14.041 178.203 16.3903Z" stroke="white" stroke-width="0.082642" stroke-miterlimit="2.613"/>
<path d="M180.474 31.382V10.1878H184.867V12.8083C185.33 11.8572 185.806 11.1058 186.304 10.553C186.869 10.0167 187.592 9.75154 188.474 9.75154C189.268 9.75154 189.947 9.98363 190.512 10.4478C191.071 10.9399 191.442 11.7246 191.623 12.8083C192.077 11.7907 192.523 11.0394 192.968 10.553C193.497 10.0167 194.256 9.75154 195.244 9.75154C196.32 9.75154 197.149 10.1713 197.731 11.0173C198.295 11.8572 198.578 12.9522 198.578 14.3008V31.3819H194.022V17.1532C194.022 16.4457 193.978 15.9702 193.885 15.7269C193.726 15.1522 193.404 14.8645 192.915 14.8645C192.439 14.8645 192.113 15.1852 191.936 15.8266C191.887 16.0253 191.852 16.2023 191.835 16.3629C191.817 16.5339 191.808 16.7994 191.808 17.1532V31.382H187.252V17.1532C187.252 16.4457 187.208 15.9702 187.125 15.7269C186.966 15.1522 186.635 14.8645 186.141 14.8645C185.665 14.8645 185.338 15.1852 185.166 15.8266C185.115 16.0019 185.078 16.1813 185.056 16.3629C185.039 16.5339 185.03 16.7994 185.03 17.1532V31.382H180.474Z" fill="white"/>
<path d="M180.474 31.382V10.1878H184.867V12.8083C185.33 11.8572 185.806 11.1058 186.304 10.553C186.869 10.0167 187.592 9.75154 188.474 9.75154C189.268 9.75154 189.947 9.98363 190.512 10.4478C191.071 10.9399 191.442 11.7246 191.623 12.8083C192.077 11.7907 192.523 11.0394 192.968 10.553C193.497 10.0167 194.256 9.75154 195.244 9.75154C196.32 9.75154 197.149 10.1713 197.731 11.0173C198.295 11.8572 198.578 12.9522 198.578 14.3008V31.3819H194.022V17.1532C194.022 16.4457 193.978 15.9702 193.885 15.7269C193.726 15.1522 193.404 14.8645 192.915 14.8645C192.439 14.8645 192.113 15.1852 191.936 15.8266C191.887 16.0253 191.852 16.2023 191.835 16.3629C191.817 16.5339 191.808 16.7994 191.808 17.1532V31.382H187.252V17.1532C187.252 16.4457 187.208 15.9702 187.125 15.7269C186.966 15.1522 186.635 14.8645 186.141 14.8645C185.665 14.8645 185.338 15.1852 185.166 15.8266C185.115 16.0019 185.078 16.1813 185.056 16.3629C185.039 16.5339 185.03 16.7994 185.03 17.1532V31.382H180.474Z" stroke="white" stroke-width="0.082642" stroke-miterlimit="2.613"/>
<path fill-rule="evenodd" clip-rule="evenodd" d="M0.00012207 36.9887H198.892V49.0006H0.00012207V36.9887Z" fill="#00AEEF"/>
<path d="M4.16809 44.7401V42.0068C4.16809 41.4366 4.33647 41.0008 4.67186 40.6968C4.98831 40.4093 5.41667 40.266 5.95677 40.266C6.4893 40.266 6.92145 40.4141 7.25167 40.7107C7.57828 41.0058 7.74167 41.4366 7.74167 42.0068V42.5621H6.35363V41.8851C6.35363 41.7405 6.33985 41.6251 6.30972 41.5396C6.24809 41.4041 6.13135 41.3362 5.95677 41.3362C5.78977 41.3362 5.67286 41.4015 5.60761 41.5322C5.57232 41.6377 5.55596 41.7543 5.55596 41.8851V44.862C5.55596 45.0441 5.58626 45.1848 5.64773 45.2853C5.70678 45.3707 5.80974 45.4144 5.95677 45.4144C6.12137 45.4144 6.23689 45.343 6.30215 45.201C6.33727 45.0956 6.3538 44.9825 6.3538 44.862V43.9789H7.74167V44.7401C7.74167 45.2728 7.58086 45.6947 7.25924 46.0062C6.9378 46.3228 6.50307 46.481 5.95677 46.481C5.41168 46.481 4.97953 46.3252 4.65792 46.0138C4.33148 45.7021 4.16809 45.2777 4.16809 44.7401ZM9.74384 44.862C9.74384 45.0441 9.77397 45.1848 9.83544 45.2853C9.89449 45.3707 9.99762 45.4144 10.1445 45.4144C10.3091 45.4144 10.4246 45.343 10.4899 45.201C10.5252 45.0956 10.5415 44.9825 10.5415 44.862V41.8775C10.5415 41.7331 10.5277 41.6176 10.4974 41.5322C10.436 41.3965 10.3191 41.3299 10.1445 41.3299C9.97748 41.3299 9.86057 41.3939 9.79532 41.5244C9.7602 41.6301 9.74367 41.7482 9.74367 41.8775L9.74384 44.862ZM11.7787 41.1603C11.8841 41.3953 11.937 41.6752 11.937 41.9994V44.7401C11.937 45.2676 11.7761 45.6897 11.4545 46.0062C11.1331 46.3228 10.6959 46.481 10.1445 46.481C9.59939 46.481 9.16724 46.3252 8.8458 46.0138C8.51919 45.7021 8.3558 45.2777 8.3558 44.7401V41.9994C8.3558 41.4304 8.52418 40.9921 8.85957 40.6854C9.17602 40.4005 9.60438 40.2585 10.1445 40.2585C10.5591 40.2585 10.9132 40.3463 11.2085 40.5236V39.6844H12.2308L12.2271 40.6856L11.7787 41.1603ZM15.8006 41.8851V44.862C15.8006 45.0441 15.8308 45.1848 15.8922 45.2853C15.9513 45.3707 16.0542 45.4144 16.2013 45.4144C16.3659 45.4144 16.4814 45.343 16.5467 45.201C16.5819 45.0956 16.5983 44.9825 16.5983 44.862V41.8851C16.5983 41.7405 16.5844 41.6251 16.5542 41.5396C16.4926 41.4041 16.3759 41.3362 16.2013 41.3362C16.0343 41.3362 15.9174 41.4015 15.8521 41.5322C15.817 41.6377 15.8006 41.7543 15.8006 41.8851ZM14.4126 44.7401V42.0068C14.4126 41.4366 14.581 41.0008 14.9164 40.6968C15.2328 40.4093 15.6612 40.266 16.2013 40.266C16.7338 40.266 17.166 40.4141 17.4963 40.7107C17.823 41.0058 17.9862 41.4366 17.9862 42.0068V44.7401C17.9862 45.4108 17.7248 45.9082 17.2025 46.2348L17.7362 47.0991L16.6133 47.2133L16.4112 46.8378L16.2089 46.481C15.9261 46.481 15.6775 46.4445 15.4616 46.3705C15.2463 46.2953 15.0502 46.1735 14.8874 46.0138C14.5708 45.7021 14.4126 45.2777 14.4126 44.7401ZM18.6003 44.7401V40.3614H19.9883V44.7552C19.9883 44.9661 20.0073 45.1195 20.046 45.2149C20.0839 45.3154 20.1981 45.3657 20.389 45.3657C20.5185 45.3657 20.6202 45.3266 20.6905 45.2488C20.7545 45.1722 20.786 45.0078 20.786 44.7552V40.3614H22.1739V44.7401C22.1739 45.2728 22.0131 45.6947 21.6916 46.0062C21.37 46.3228 20.9355 46.481 20.389 46.481C19.8439 46.481 19.4117 46.3252 19.0903 46.0138C18.7637 45.7021 18.6003 45.2777 18.6003 44.7401ZM22.1186 46.3855L23.2341 40.3614H25.0741L26.2034 46.3857H24.7502L24.6208 45.3141H23.6497L23.5065 46.3855H22.1186ZM23.793 44.244H24.4851L24.1611 41.296L23.793 44.244ZM26.5639 46.3855V40.3614H28.08L29.1954 43.9124L29.2105 40.3614H30.5531V46.3857H29.0447L27.9216 42.6613L27.9067 46.3855H26.5639ZM33.0363 44.7401V42.0068C33.0363 41.4366 33.2047 41.0008 33.5401 40.6968C33.8565 40.4093 34.2849 40.266 34.825 40.266C35.3575 40.266 35.7897 40.4141 36.1201 40.7107C36.4467 41.0058 36.6099 41.4366 36.6099 42.0068V42.5621H35.2218V41.8851C35.2218 41.7405 35.2081 41.6251 35.1779 41.5396C35.1163 41.4041 34.9996 41.3362 34.825 41.3362C34.658 41.3362 34.5411 41.4015 34.4758 41.5322C34.4407 41.6377 34.4242 41.7543 34.4242 41.8851V44.862C34.4242 45.0441 34.4545 45.1848 34.5159 45.2853C34.575 45.3707 34.678 45.4144 34.825 45.4144C34.9896 45.4144 35.1051 45.343 35.1704 45.201C35.2057 45.0956 35.222 44.9825 35.222 44.862V43.9789H36.6099V44.7401C36.6099 45.2728 36.4491 45.6947 36.1276 46.0062C35.806 46.3228 35.3715 46.481 34.825 46.481C34.2799 46.481 33.8477 46.3252 33.5263 46.0138C33.1997 45.7021 33.0363 45.2777 33.0363 44.7401ZM37.2242 40.354H38.6119V44.7552C38.6119 44.9661 38.6308 45.1195 38.6699 45.2149C38.7074 45.3154 38.8219 45.3657 39.0129 45.3657C39.142 45.3657 39.2439 45.3266 39.3142 45.2488C39.3782 45.1722 39.4097 45.0078 39.4097 44.7552V40.354H40.8052V44.7401C40.8052 45.2676 40.6444 45.6897 40.3229 46.0062C40.0013 46.3228 39.5642 46.481 39.0127 46.481C38.4676 46.481 38.0355 46.3252 37.714 46.0138C37.3874 45.7021 37.2242 45.2777 37.2242 44.7401V40.354ZM38.7629 40.0374C38.7703 39.8879 38.8206 39.7385 38.9135 39.589L39.1998 39.2285C39.3054 39.1054 39.3582 38.9809 39.3582 38.8566C39.3582 38.77 39.3469 38.701 39.3217 38.6469C39.2928 38.5905 39.2376 38.5615 39.1559 38.5615C39.0893 38.5615 39.0378 38.5929 38.9976 38.6545C38.9693 38.7309 38.9544 38.8117 38.9536 38.8931V39.0992H38.3948V38.8492C38.3948 38.6431 38.4638 38.4722 38.6045 38.3379C38.7414 38.2022 38.9323 38.1358 39.1785 38.1358C39.4335 38.1358 39.632 38.1909 39.7739 38.3002C39.9095 38.4159 39.9774 38.5942 39.9774 38.8341C39.9774 39.0112 39.9147 39.1795 39.789 39.3391L39.4285 39.7247C39.3507 39.8277 39.2966 39.9318 39.2665 40.0374H38.7629ZM41.1543 46.3855L42.2698 40.3614H44.11L45.2391 46.3857H43.786L43.6565 45.3141H42.6854L42.5424 46.3855H41.1543ZM42.8287 44.244H43.5208L43.1968 41.296L42.8287 44.244ZM47.4687 43.6259H47.1822V42.6914H47.4685V40.354H49.5337C50.0876 40.354 50.487 40.5072 50.7331 40.8137C50.9441 41.0725 51.0497 41.4568 51.0497 41.9691V44.8406C51.0497 45.353 50.8889 45.7462 50.5674 46.0214C50.2847 46.2638 49.9406 46.3855 49.5335 46.3855H47.4687V43.6259ZM48.8566 42.6914H49.2799V43.6259H48.8566V45.3594H49.1066C49.2711 45.3594 49.403 45.3155 49.5034 45.2301C49.604 45.1521 49.6542 45.0467 49.6542 44.9134V41.8925C49.6542 41.5509 49.4607 41.3813 49.0726 41.3813H48.8566V42.6914ZM52.5143 40.354H54.3545L55.4912 46.3855H54.0303L53.901 45.3141H52.93L52.7869 46.3855H51.3988L52.5143 40.354ZM53.0732 44.244H53.7653L53.4413 41.2884L53.0732 44.244ZM53.0921 40.0374C53.0995 39.8879 53.1498 39.7385 53.2428 39.589L53.5291 39.2285C53.6346 39.1054 53.6875 38.9809 53.6875 38.8566C53.6875 38.77 53.6761 38.701 53.651 38.6469C53.6221 38.5905 53.5668 38.5615 53.4852 38.5615C53.4186 38.5615 53.3659 38.5929 53.3268 38.6545C53.2985 38.7309 53.2837 38.8117 53.2829 38.8931V39.0992H52.724V38.8492C52.724 38.6431 52.7931 38.4722 52.9339 38.3379C53.0708 38.2022 53.2617 38.1358 53.5078 38.1358C53.7627 38.1358 53.9613 38.1909 54.1033 38.3002C54.2388 38.4159 54.3054 38.5942 54.3054 38.8341C54.3054 39.0112 54.2438 39.1795 54.1183 39.3391L53.7578 39.7247C53.6845 39.8177 53.6295 39.9238 53.5959 40.0374H53.0921ZM55.8441 46.3855V40.3614H57.3603L58.4756 43.9124L58.4907 40.3614H59.8333V46.3857H58.3249L57.202 42.6613L57.1869 46.3855H55.8441ZM60.4476 44.7401V42.0068C60.4476 41.4366 60.6158 41.0008 60.9512 40.6968C61.2678 40.4093 61.6962 40.266 62.2363 40.266C62.7688 40.266 63.1832 40.369 63.4797 40.5749C63.8402 40.8249 64.0212 41.2143 64.0212 41.7419V42.4114H62.7036V41.8109C62.7036 41.4945 62.5577 41.3362 62.265 41.3362C62.1182 41.3362 62.0001 41.4041 61.9121 41.5396C61.8611 41.6476 61.835 41.7657 61.8355 41.8851V44.862C61.8355 45.0441 61.8656 45.1848 61.9273 45.2853C61.9863 45.3707 62.0893 45.4144 62.2363 45.4144C62.5302 45.4144 62.6784 45.2626 62.6784 44.9611V44.185H62.1886V43.0695H64.0212V46.3855H62.8065V45.8957C62.5515 46.2865 62.1898 46.481 61.7212 46.481C61.274 46.481 60.9387 46.3053 60.7126 45.9547C60.5356 45.6632 60.4474 45.2588 60.4474 44.7401H60.4476ZM66.5044 40.354H67.8923V44.7552C67.8923 44.9661 67.9112 45.1195 67.9501 45.2149C67.9878 45.3154 68.1022 45.3657 68.2931 45.3657C68.4222 45.3657 68.5241 45.3266 68.5944 45.2488C68.6586 45.1722 68.6899 45.0078 68.6899 44.7552V40.354H70.0854V44.7401C70.0854 45.2676 69.9246 45.6897 69.6031 46.0062C69.2815 46.3228 68.8444 46.481 68.2929 46.481C67.7478 46.481 67.3159 46.3252 66.9942 46.0138C66.6676 45.7021 66.5044 45.2777 66.5044 44.7401V40.354ZM68.0431 40.0374C68.0505 39.8879 68.1008 39.7385 68.1937 39.589L68.4801 39.2285C68.5856 39.1054 68.6385 38.9809 68.6385 38.8566C68.6385 38.77 68.6271 38.701 68.602 38.6469C68.5731 38.5905 68.5178 38.5615 68.4362 38.5615C68.3695 38.5615 68.3181 38.5929 68.2779 38.6545C68.2497 38.7309 68.2348 38.8117 68.234 38.8931V39.0992H67.675V38.8492C67.675 38.6431 67.744 38.4722 67.8847 38.3379C68.0218 38.2022 68.2125 38.1358 68.4587 38.1358C68.7137 38.1358 68.9122 38.1909 69.0543 38.3002C69.1899 38.4159 69.2576 38.5942 69.2576 38.8341C69.2576 39.0112 69.1949 39.1795 69.0692 39.3391L68.7087 39.7247C68.6309 39.8277 68.5768 39.9318 68.5467 40.0374H68.0431ZM71.5714 44.0042L70.4421 40.3614H71.8741L72.2597 42.3963L72.6791 40.3614H74.0885L72.9593 43.9047V46.3857H71.5714V44.0042ZM76.9913 46.3855L76.0719 40.3614H77.4887L77.868 44.6447L78.3429 40.3614H79.7333L78.7108 46.3857L76.9913 46.3855ZM80.9556 40.354H82.7956L83.9324 46.3855H82.4715L82.3422 45.3141H81.3712L81.2279 46.3855H79.8401L80.9556 40.354ZM82.0483 38.971L82.3798 39.9935H81.6802L80.86 38.971H82.0483ZM81.5144 44.244H82.2066L81.8824 41.2884L81.5144 44.244ZM86.1544 46.3855V40.3614H88.0748C88.5974 40.3614 88.9804 40.467 89.2242 40.678C89.4591 40.8941 89.5772 41.2608 89.5772 41.7782C89.5772 42.1664 89.5345 42.4528 89.4477 42.6399C89.3422 42.8899 89.1313 43.0746 88.8146 43.1952C89.1413 43.2568 89.3749 43.4099 89.5155 43.6574C89.6576 43.9037 89.7278 44.2163 89.7278 44.597C89.7278 45.1371 89.6147 45.5617 89.3887 45.8705C89.1313 46.2135 88.7091 46.3855 88.1239 46.3855H86.1544ZM87.5421 43.7253V45.3594H87.8286C88.0347 45.3594 88.1742 45.3067 88.2444 45.201C88.3085 45.0856 88.3398 44.8645 88.3398 44.5379C88.3398 44.2754 88.316 44.0868 88.2671 43.9715C88.1955 43.8069 88.0599 43.7253 87.8588 43.7253H87.5421ZM87.5421 41.3877V42.7467H87.7999C87.9956 42.7467 88.1301 42.6778 88.2043 42.5395C88.2558 42.4302 88.2821 42.2644 88.2821 42.0433C88.2821 41.8173 88.252 41.6515 88.1917 41.5459C88.1315 41.4404 88.0171 41.3875 87.8513 41.3875L87.5421 41.3877ZM90.3421 41.9994C90.3421 41.4304 90.5104 40.9921 90.8457 40.6854C91.1624 40.4005 91.5907 40.2585 92.1308 40.2585C92.6634 40.2585 93.0953 40.4041 93.4257 40.6968C93.7573 40.9907 93.9233 41.4253 93.9233 41.9994V44.7401C93.9233 45.2676 93.7623 45.6897 93.4409 46.0062C93.1193 46.3228 92.6821 46.481 92.1307 46.481C91.5856 46.481 91.1534 46.3252 90.832 46.0138C90.5054 45.7021 90.3421 45.2777 90.3421 44.7401V41.9994ZM91.0116 39.9935L91.637 38.971H92.7011L93.2461 39.9935H92.4622L92.1308 39.4195L91.7514 39.9935H91.0116ZM91.73 44.862C91.73 45.0441 91.7601 45.1848 91.8218 45.2853C91.8808 45.3707 91.9836 45.4144 92.1308 45.4144C92.2952 45.4144 92.4108 45.343 92.4762 45.201C92.5113 45.0956 92.5277 44.9825 92.5277 44.862V41.8775C92.5277 41.7331 92.5139 41.6176 92.4838 41.5322C92.4221 41.3965 92.3054 41.3299 92.1308 41.3299C91.9638 41.3299 91.8467 41.3939 91.7815 41.5244C91.7464 41.6301 91.73 41.7482 91.73 41.8775V44.862ZM91.4976 46.9633H92.7926V47.8539H91.4978L91.4976 46.9633ZM96.1715 41.5244V40.3614H99.3544V41.5246H98.4562V46.3855H97.0683V41.5246L96.1715 41.5244ZM103.129 39.6844H104.153L104.149 40.6856L103.666 41.193H103.332L103.325 44.7401C103.325 45.2676 103.164 45.6897 102.842 46.0062C102.521 46.3228 102.084 46.481 101.532 46.481C100.987 46.481 100.555 46.3252 100.234 46.0138C99.9071 45.7021 99.7437 45.2777 99.7437 44.7401V40.354H101.132V44.7552C101.132 44.9661 101.151 45.1195 101.189 45.2149C101.227 45.3154 101.341 45.3657 101.532 45.3657C101.662 45.3657 101.763 45.3266 101.834 45.2488C101.898 45.1722 101.929 45.0078 101.929 44.7552V40.354L103.129 40.369V39.6844ZM105.8 46.3855V40.3614H107.189V45.2225H108.697V46.3855H105.8ZM109.145 40.354H112.229V41.517H110.533V42.7205H112.019V43.8835H110.533V45.2225H112.296V46.3855H109.145V40.354ZM109.605 39.9935L110.231 38.971H111.295L111.836 39.9935H111.052L110.72 39.4195L110.345 39.9935H109.605ZM110.021 46.9633H111.317V47.8539H110.021L110.021 46.9633ZM112.914 46.3855V40.3614H114.43L115.545 43.9124L115.56 40.3614H116.903V46.3857H115.394L114.271 42.6613L114.256 46.3855H112.914ZM117.517 46.3855V40.3614H118.905V42.6174H119.703V40.3614H121.091V46.3857H119.703V43.8207H118.905V46.3855H117.517ZM124.962 41.8849V44.862C124.962 45.0441 124.992 45.1848 125.053 45.2853C125.113 45.3707 125.216 45.4144 125.363 45.4144C125.527 45.4144 125.643 45.343 125.708 45.201C125.743 45.0956 125.76 44.9825 125.76 44.862V41.8851C125.76 41.7405 125.746 41.6251 125.715 41.5396C125.654 41.4041 125.537 41.3362 125.363 41.3362C125.196 41.3362 125.079 41.4015 125.013 41.5322C124.978 41.6377 124.962 41.7543 124.962 41.8851V41.8849ZM123.574 44.7401V42.0068C123.574 41.4366 123.742 41.0008 124.078 40.6968C124.394 40.4093 124.822 40.266 125.363 40.266C125.895 40.266 126.327 40.4141 126.658 40.7107C126.984 41.0058 127.147 41.4366 127.147 42.0068V44.7401C127.147 45.4108 126.886 45.9082 126.364 46.2348L126.897 47.0991L125.775 47.2133L125.572 46.8378L125.37 46.481C125.087 46.481 124.839 46.4445 124.623 46.3705C124.407 46.2953 124.211 46.1735 124.049 46.0138C123.732 45.7021 123.574 45.2777 123.574 44.7401ZM127.762 44.7401V40.3614H129.15V44.7552C129.15 44.9661 129.169 45.1195 129.207 45.2149C129.245 45.3154 129.359 45.3657 129.55 45.3657C129.68 45.3657 129.781 45.3266 129.852 45.2488C129.916 45.1722 129.947 45.0078 129.947 44.7552V40.3614H131.335V44.7401C131.335 45.2728 131.174 45.6947 130.853 46.0062C130.531 46.3228 130.097 46.481 129.55 46.481C129.005 46.481 128.573 46.3252 128.252 46.0138C127.925 45.7021 127.762 45.2777 127.762 44.7401ZM132.807 40.354H134.647L135.784 46.3855H134.323L134.194 45.3141H133.223L133.08 46.3855H131.692L132.807 40.354ZM132.619 39.9935L133.244 38.971H134.308L134.85 39.9935H134.066L133.734 39.4195L133.359 39.9935H132.619ZM133.366 44.244H134.058L133.734 41.2884L133.366 44.244ZM136.137 46.3855V40.3614H137.653L138.769 43.9124L138.784 40.3614H140.127V46.3857H138.618L137.495 42.6613L137.48 46.3855H136.137ZM142.61 44.7401V42.0068C142.61 41.4366 142.778 41.0008 143.113 40.6968C143.43 40.4093 143.858 40.266 144.398 40.266C144.931 40.266 145.363 40.4141 145.693 40.7107C146.02 41.0058 146.183 41.4366 146.183 42.0068V42.5621H144.795V41.8851C144.795 41.7405 144.781 41.6251 144.751 41.5396C144.69 41.4041 144.573 41.3362 144.398 41.3362C144.231 41.3362 144.114 41.4015 144.049 41.5322C144.014 41.6377 143.997 41.7543 143.997 41.8851V44.862C143.997 45.0441 144.028 45.1848 144.089 45.2853C144.148 45.3707 144.251 45.4144 144.398 45.4144C144.563 45.4144 144.678 45.343 144.744 45.201C144.779 45.0956 144.795 44.9825 144.795 44.862V43.9789H146.183V44.7401C146.183 45.2728 146.022 45.6947 145.701 46.0062C145.379 46.3228 144.945 46.481 144.398 46.481C143.853 46.481 143.421 46.3252 143.1 46.0138C142.773 45.7021 142.61 45.2777 142.61 44.7401ZM146.797 46.3855V40.3614H148.185V42.6174H148.983V40.3614H150.371V46.3857H148.983V43.8207H148.185V46.3855H146.797ZM150.985 40.354H152.373V44.7552C152.373 44.9661 152.392 45.1195 152.431 45.2149C152.468 45.3154 152.583 45.3657 152.774 45.3657C152.903 45.3657 153.005 45.3266 153.075 45.2488C153.139 45.1722 153.171 45.0078 153.171 44.7552V40.354H154.566V44.7401C154.566 45.2676 154.405 45.6897 154.084 46.0062C153.762 46.3228 153.325 46.481 152.774 46.481C152.229 46.481 151.796 46.3252 151.475 46.0138C151.148 45.7021 150.985 45.2777 150.985 44.7401V40.354ZM152.524 40.0374C152.531 39.8879 152.582 39.7385 152.674 39.589L152.961 39.2285C153.066 39.1054 153.119 38.9809 153.119 38.8566C153.119 38.77 153.108 38.701 153.083 38.6469C153.054 38.5905 152.999 38.5615 152.917 38.5615C152.85 38.5615 152.799 38.5929 152.759 38.6545C152.73 38.7309 152.716 38.8117 152.715 38.8931V39.0992H152.156V38.8492C152.156 38.6431 152.225 38.4722 152.365 38.3379C152.503 38.2022 152.693 38.1358 152.94 38.1358C153.194 38.1358 153.393 38.1909 153.535 38.3002C153.671 38.4159 153.738 38.5942 153.738 38.8341C153.738 39.0112 153.676 39.1795 153.55 39.3391L153.189 39.7247C153.112 39.8277 153.058 39.9318 153.027 40.0374H152.524ZM155.173 46.3855V40.3614H156.689L157.804 43.9124L157.819 40.3614H159.162V46.3857H157.654L156.531 42.6613L156.516 46.3855H155.173ZM159.776 44.7401V42.0068C159.776 41.4366 159.945 41.0008 160.28 40.6968C160.597 40.4093 161.025 40.266 161.565 40.266C162.098 40.266 162.512 40.369 162.808 40.5749C163.169 40.8249 163.35 41.2143 163.35 41.7419V42.4114H162.032V41.8109C162.032 41.4945 161.887 41.3362 161.594 41.3362C161.447 41.3362 161.329 41.4041 161.241 41.5396C161.19 41.6476 161.164 41.7657 161.164 41.8851V44.862C161.164 45.0441 161.194 45.1848 161.256 45.2853C161.315 45.3707 161.418 45.4144 161.565 45.4144C161.859 45.4144 162.007 45.2626 162.007 44.9611V44.185H161.517V43.0695H163.35V46.3855H162.135V45.8957C161.88 46.2865 161.519 46.481 161.05 46.481C160.603 46.481 160.267 46.3053 160.041 45.9547C159.864 45.6632 159.776 45.2588 159.776 44.7401H159.776ZM165.833 46.3855V40.3614H167.221V42.6174H168.019V40.3614H169.407V46.3857H168.019V43.8207H167.221V46.3855H165.833ZM170.879 40.354H172.719L173.856 46.3855H172.395L172.265 45.3141H171.294L171.151 46.3855H169.763L170.879 40.354ZM171.438 44.244H172.13L171.806 41.2884L171.438 44.244ZM171.457 40.0374C171.464 39.8879 171.514 39.7385 171.607 39.589L171.894 39.2285C171.999 39.1054 172.052 38.9809 172.052 38.8566C172.052 38.77 172.041 38.701 172.015 38.6469C171.987 38.5905 171.931 38.5615 171.85 38.5615C171.783 38.5615 171.73 38.5929 171.691 38.6545C171.663 38.7309 171.648 38.8117 171.647 38.8931V39.0992H171.089V38.8492C171.089 38.6431 171.158 38.4722 171.298 38.3379C171.435 38.2022 171.626 38.1358 171.872 38.1358C172.127 38.1358 172.326 38.1909 172.468 38.3002C172.603 38.4159 172.67 38.5942 172.67 38.8341C172.67 39.0112 172.608 39.1795 172.483 39.3391L172.122 39.7247C172.049 39.8177 171.994 39.9238 171.96 40.0374H171.457ZM174.253 46.3855V40.3614H175.64V46.3857L174.253 46.3855ZM179.559 41.8849V44.862C179.559 45.0441 179.59 45.1848 179.651 45.2853C179.71 45.3707 179.813 45.4144 179.96 45.4144C180.125 45.4144 180.24 45.343 180.306 45.201C180.341 45.0956 180.357 44.9825 180.357 44.862V41.8851C180.357 41.7405 180.343 41.6251 180.313 41.5396C180.251 41.4041 180.135 41.3362 179.96 41.3362C179.793 41.3362 179.676 41.4015 179.611 41.5322C179.576 41.6377 179.559 41.7543 179.559 41.8851V41.8849ZM178.171 44.7401V42.0068C178.171 41.4366 178.34 41.0008 178.675 40.6968C178.992 40.4093 179.42 40.266 179.96 40.266C180.493 40.266 180.925 40.4141 181.255 40.7107C181.582 41.0058 181.745 41.4366 181.745 42.0068V44.7401C181.745 45.4108 181.484 45.9082 180.961 46.2348L181.495 47.0991L180.372 47.2133L180.17 46.8378L179.968 46.481C179.685 46.481 179.436 46.4445 179.22 46.3705C179.005 46.2953 178.809 46.1735 178.646 46.0138C178.33 45.7021 178.171 45.2777 178.171 44.7401ZM182.359 44.7401V40.3614H183.747V44.7552C183.747 44.9661 183.766 45.1195 183.805 45.2149C183.843 45.3154 183.957 45.3657 184.148 45.3657C184.277 45.3657 184.379 45.3266 184.449 45.2488C184.513 45.1722 184.545 45.0078 184.545 44.7552V40.3614H185.933V44.7401C185.933 45.2728 185.772 45.6947 185.45 46.0062C185.129 46.3228 184.694 46.481 184.148 46.481C183.603 46.481 183.171 46.3252 182.849 46.0138C182.523 45.7021 182.359 45.2777 182.359 44.7401ZM187.405 40.354H189.245L190.382 46.3855H188.921L188.792 45.3141H187.821L187.677 46.3855H186.289L187.405 40.354ZM187.216 39.9935L187.842 38.971H188.906L189.447 39.9935H188.663L188.332 39.4195L187.956 39.9935H187.216ZM187.964 44.244H188.656L188.332 41.2884L187.964 44.244ZM190.735 46.3855V40.3614H192.251L193.366 43.9124L193.381 40.3614H194.724V46.3857H193.215L192.092 42.6613L192.078 46.3855H190.735Z" fill="white"/>
</svg>
