<svg width="212" height="53" viewBox="0 0 212 53" fill="none" xmlns="http://www.w3.org/2000/svg">
<path d="M0.219482 33.3841V5.13672H5.41395V15.7075H8.39904V5.1369H13.593V33.3839H8.39904V21.3637H5.41395V33.3841H0.219482Z" fill="#C4151C"/>
<path d="M0.219482 33.3841V5.13672H5.41395V15.7075H8.39904V5.1369H13.593V33.3839H8.39904V21.3637H5.41395V33.3841H0.219482Z" stroke="#C4151C" stroke-width="0.0880884" stroke-miterlimit="2.613"/>
<path d="M21.1989 8.92502V8.21756C21.1989 7.7228 21.6314 6.89807 22.4963 5.73695C22.6842 5.50038 22.8377 5.23849 22.9524 4.95902C23.063 4.69192 23.1204 4.40579 23.1214 4.11668C23.1214 3.73368 23.0744 3.47455 22.976 3.32719C22.9239 3.19193 22.7457 3.10935 22.44 3.08586C21.8197 3.08586 21.5092 3.48648 21.5092 4.2879V5.13612H19.5911V4.11686C19.5911 3.33324 19.8263 2.63808 20.2965 2.02495C20.8417 1.34171 21.5844 1 22.5198 1C23.3332 1 23.9958 1.24738 24.4987 1.74233C25.0067 2.23709 25.2652 2.97979 25.2652 3.9695C25.2652 4.86506 24.8799 5.71346 24.1085 6.51489C23.3189 7.31631 22.9239 8.11773 22.9239 8.92484L21.1989 8.92502ZM23.0606 22.0351L21.7065 23.2788C21.1427 23.8145 20.8605 24.4864 20.8605 25.2882V28.2927C20.8605 29.4946 21.2176 30.096 21.9276 30.096C22.2704 30.096 22.5527 29.9189 22.7786 29.5715C22.9665 29.1409 23.0606 28.6579 23.0606 28.1158V22.0351ZM27.7424 33.3837H23.286V31.6513C22.4448 33.1126 21.2739 33.8432 19.7885 33.8432C18.1905 33.8432 17.0906 33.148 16.4889 31.763C16.0563 30.7438 15.8403 29.1409 15.8403 26.9552C15.8403 25.0402 16.2255 23.5319 16.9965 22.4181C17.5373 21.623 18.3736 20.9159 19.5019 20.2967C20.9359 19.5958 21.7584 19.1244 21.9652 18.8887C22.6938 18.2762 23.0608 17.4391 23.0608 16.3786C23.0608 15.7838 22.9852 15.312 22.8397 14.9644C22.6703 14.6344 22.3649 14.4696 21.9276 14.4696C21.1005 14.4696 20.6865 14.9996 20.6865 16.0607V17.8988H16.1784V15.8425C16.1784 14.1749 16.7142 12.8317 17.7814 11.8182C18.8581 10.8052 20.2211 10.2979 21.876 10.2979C24.0195 10.2979 25.5332 10.852 26.4214 11.9655C27.3005 13.067 27.7424 14.882 27.7424 17.41V33.3837Z" fill="#C4151C"/>
<path d="M21.1989 8.92502V8.21756C21.1989 7.7228 21.6314 6.89807 22.4963 5.73695C22.6842 5.50038 22.8377 5.23849 22.9524 4.95902C23.063 4.69192 23.1204 4.40579 23.1214 4.11668C23.1214 3.73368 23.0744 3.47455 22.976 3.32719C22.9239 3.19193 22.7457 3.10935 22.44 3.08586C21.8197 3.08586 21.5092 3.48648 21.5092 4.2879V5.13612H19.5911V4.11686C19.5911 3.33324 19.8263 2.63808 20.2965 2.02495C20.8417 1.34171 21.5844 1 22.5198 1C23.3332 1 23.9958 1.24738 24.4987 1.74233C25.0067 2.23709 25.2652 2.97979 25.2652 3.9695C25.2652 4.86506 24.8799 5.71346 24.1085 6.51489C23.3189 7.31631 22.9239 8.11773 22.9239 8.92484L21.1989 8.92502ZM23.0606 22.0351L21.7065 23.2788C21.1427 23.8145 20.8605 24.4864 20.8605 25.2882V28.2927C20.8605 29.4946 21.2176 30.096 21.9276 30.096C22.2704 30.096 22.5527 29.9189 22.7786 29.5715C22.9665 29.1409 23.0606 28.6579 23.0606 28.1158V22.0351ZM27.7424 33.3837H23.286V31.6513C22.4448 33.1126 21.2739 33.8432 19.7885 33.8432C18.1905 33.8432 17.0906 33.148 16.4889 31.763C16.0563 30.7438 15.8403 29.1409 15.8403 26.9553C15.8403 25.0402 16.2255 23.5319 16.9965 22.4181C17.5373 21.623 18.3736 20.9159 19.5019 20.2967C20.9359 19.5958 21.7584 19.1244 21.9652 18.8887C22.6938 18.2762 23.0608 17.4391 23.0608 16.3786C23.0608 15.7838 22.9852 15.312 22.8397 14.9644C22.6703 14.6344 22.3649 14.4696 21.9276 14.4696C21.1005 14.4696 20.6865 14.9996 20.6865 16.0607V17.8988H16.1784V15.8425C16.1784 14.1749 16.7142 12.8317 17.7814 11.8182C18.8581 10.8052 20.2211 10.2979 21.876 10.2979C24.0195 10.2979 25.5332 10.852 26.4214 11.9655C27.3004 13.067 27.7424 14.882 27.7424 17.41V33.3837Z" stroke="#C4151C" stroke-width="0.0880884" stroke-miterlimit="2.613"/>
<path d="M30.3373 9.30844V5.13672H35.1933V9.30844H30.3373ZM30.3373 33.3841V10.7931H35.1933V33.3841H30.3373Z" fill="#C4151C"/>
<path d="M30.3373 9.30844V5.13672H35.1933V9.30844H30.3373ZM30.3373 33.3841V10.7931H35.1933V33.3841H30.3373Z" stroke="#C4151C" stroke-width="0.0880884" stroke-miterlimit="2.613"/>
<path d="M44.8907 25.6776V12.8444C44.8907 10.1812 45.5202 8.13062 46.7802 6.69863C47.9649 5.34941 49.5635 4.67773 51.58 4.67773C53.573 4.67773 55.1901 5.37327 56.4311 6.76947C57.6533 8.15411 58.2644 10.1811 58.2644 12.8444V25.6778C58.2644 28.8123 57.2864 31.1457 55.3263 32.6776L57.3336 36.743L53.1267 37.2793L52.3603 35.5116L51.6035 33.8442C50.5506 33.8442 49.6149 33.6671 48.811 33.3197C48.0027 32.9602 47.2882 32.4065 46.6676 31.6522C45.483 30.1907 44.8907 28.1994 44.8907 25.6776ZM50.0852 12.2845V26.2491C50.0852 27.0918 50.1979 27.7519 50.4238 28.2232C50.6442 28.6237 51.0298 28.8297 51.58 28.8297C52.1958 28.8297 52.6282 28.4941 52.8728 27.8342C53.0042 27.3392 53.0703 26.8092 53.0703 26.2491V12.2844C53.0703 11.6013 53.0134 11.053 52.896 10.6525C52.675 10.0219 52.2335 9.70373 51.58 9.70373C50.9593 9.70373 50.5271 10.0102 50.2777 10.6173C50.1509 11.112 50.0852 11.6659 50.0852 12.2845Z" fill="#C4151C"/>
<path d="M44.8907 25.6776V12.8444C44.8907 10.1812 45.5202 8.13062 46.7802 6.69863C47.9649 5.34941 49.5635 4.67773 51.58 4.67773C53.573 4.67773 55.1901 5.37327 56.4311 6.76947C57.6533 8.15411 58.2644 10.1811 58.2644 12.8444V25.6778C58.2644 28.8123 57.2864 31.1457 55.3263 32.6776L57.3336 36.743L53.1267 37.2793L52.3603 35.5116L51.6035 33.8442C50.5506 33.8442 49.6149 33.6671 48.811 33.3197C48.0027 32.9602 47.2882 32.4065 46.6676 31.6522C45.483 30.1907 44.8907 28.1994 44.8907 25.6776ZM50.0852 12.2845V26.2491C50.0852 27.0918 50.1979 27.7519 50.4238 28.2232C50.6442 28.6237 51.0298 28.8297 51.58 28.8297C52.1958 28.8297 52.6282 28.4941 52.8728 27.8342C53.0042 27.3392 53.0703 26.8092 53.0703 26.2491V12.2844C53.0703 11.6013 53.0134 11.053 52.896 10.6525C52.675 10.0219 52.2335 9.70373 51.58 9.70373C50.9593 9.70373 50.5271 10.0102 50.2777 10.6173C50.1509 11.112 50.0852 11.6659 50.0852 12.2845Z" stroke="#C4151C" stroke-width="0.0880884" stroke-miterlimit="2.613"/>
<path d="M72.4135 10.793V33.3838H67.7222V30.874C67.2381 31.8637 66.7165 32.6174 66.1524 33.1362C65.5695 33.6077 64.8454 33.8433 63.9806 33.8433C62.8524 33.8433 61.992 33.3838 61.409 32.4701C60.8074 31.551 60.5068 30.3904 60.5068 28.9997V10.793H65.3623V26.2422C65.3623 26.9788 65.4 27.4323 65.4798 27.6153C65.6494 28.1337 65.9736 28.3934 66.4625 28.3934C66.9088 28.3934 67.2239 28.0985 67.412 27.5149C67.5106 27.1088 67.5576 26.6904 67.5576 26.2422V10.793H72.4135Z" fill="#C4151C"/>
<path d="M72.4135 10.793V33.3838H67.7222V30.874C67.2381 31.8637 66.7165 32.6174 66.1524 33.1362C65.5695 33.6077 64.8454 33.8433 63.9806 33.8433C62.8524 33.8433 61.992 33.3838 61.409 32.4701C60.8074 31.551 60.5068 30.3904 60.5068 28.9997V10.793H65.3623V26.2422C65.3623 26.9788 65.4 27.4323 65.4798 27.6153C65.6494 28.1337 65.9736 28.3934 66.4625 28.3934C66.9088 28.3934 67.2239 28.0985 67.412 27.5149C67.5106 27.1088 67.5576 26.6904 67.5576 26.2422V10.793H72.4135Z" stroke="#C4151C" stroke-width="0.0880884" stroke-miterlimit="2.613"/>
<path d="M81.8339 22.0348L80.4801 23.2785C79.9161 23.8142 79.6339 24.486 79.6339 25.2878V28.2924C79.6339 29.4942 79.9916 30.0956 80.7009 30.0956C81.0442 30.0956 81.3261 29.9185 81.5518 29.5711C81.7399 29.1406 81.8341 28.6576 81.8341 28.1155L81.8339 22.0348ZM76.3908 9.06011L78.7314 4.25195H82.7082L84.7392 9.06011H81.8056L80.5647 6.37342L79.1498 9.06011H76.3908ZM86.5162 33.3833H82.0594V31.6509C81.2182 33.1123 80.0475 33.8429 78.562 33.8429C76.9639 33.8429 75.8639 33.1477 75.2623 31.7627C74.8298 30.7434 74.6138 29.1406 74.6138 26.9549C74.6138 25.0399 74.9988 23.5316 75.7699 22.4178C76.3108 21.6226 77.147 20.9155 78.2753 20.2963C79.7093 19.5955 80.5318 19.124 80.7385 18.8884C81.467 18.2758 81.8341 17.4388 81.8341 16.3782C81.8341 15.7835 81.7587 15.3116 81.6131 14.9641C81.4436 14.6341 81.1384 14.4693 80.701 14.4693C79.8739 14.4693 79.4599 14.9993 79.4599 16.0604V17.8985H74.9522V15.8422C74.9522 14.1746 75.4879 12.8314 76.5548 11.8178C77.6315 10.8048 78.9945 10.2976 80.6495 10.2976C82.793 10.2976 84.3066 10.8516 85.1948 11.9652C86.0739 13.0667 86.5162 14.8817 86.5162 17.4096V33.3833Z" fill="#C4151C"/>
<path d="M81.8339 22.0348L80.4801 23.2785C79.9161 23.8142 79.6339 24.486 79.6339 25.2878V28.2924C79.6339 29.4942 79.9916 30.0956 80.7009 30.0956C81.0442 30.0956 81.3261 29.9185 81.5518 29.5711C81.7399 29.1406 81.8341 28.6576 81.8341 28.1155L81.8339 22.0348ZM76.3908 9.06011L78.7314 4.25195H82.7082L84.7392 9.06011H81.8056L80.5647 6.37342L79.1498 9.06011H76.3908ZM86.5162 33.3833H82.0594V31.6509C81.2182 33.1123 80.0475 33.8429 78.562 33.8429C76.9639 33.8429 75.8639 33.1477 75.2623 31.7627C74.8298 30.7434 74.6138 29.1406 74.6138 26.9549C74.6138 25.0399 74.9988 23.5316 75.7699 22.4178C76.3108 21.6226 77.147 20.9155 78.2753 20.2963C79.7093 19.5955 80.5318 19.124 80.7385 18.8884C81.467 18.2758 81.8341 17.4388 81.8341 16.3782C81.8341 15.7835 81.7587 15.3116 81.6131 14.9641C81.4436 14.6341 81.1384 14.4693 80.701 14.4693C79.8739 14.4693 79.4599 14.9993 79.4599 16.0604V17.8985H74.9522V15.8422C74.9522 14.1746 75.4879 12.8314 76.5548 11.8178C77.6315 10.8048 78.9945 10.2976 80.6495 10.2976C82.793 10.2976 84.3066 10.8516 85.1948 11.9652C86.0739 13.0667 86.5162 14.8817 86.5162 17.4096V33.3833Z" stroke="#C4151C" stroke-width="0.0880884" stroke-miterlimit="2.613"/>
<path d="M88.7114 33.3842V10.7932H93.4025V13.2974C93.8305 12.4312 94.3381 11.7008 94.9207 11.1117C95.5741 10.5873 96.3169 10.3281 97.1444 10.3281C98.2771 10.3281 99.1422 10.7755 99.7438 11.6773C100.327 12.5725 100.618 13.7397 100.618 15.1772V33.384H95.7624V17.9347C95.7624 17.204 95.7247 16.7443 95.6449 16.556C95.4757 16.0374 95.1512 15.778 94.6673 15.778C94.2157 15.778 93.9006 16.073 93.713 16.6677C93.6139 17.0625 93.5671 17.487 93.5671 17.9347V33.3842H88.7114Z" fill="#C4151C"/>
<path d="M88.7114 33.3842V10.7932H93.4025V13.2974C93.8305 12.4312 94.3381 11.7008 94.9207 11.1117C95.5741 10.5873 96.3169 10.3281 97.1444 10.3281C98.2771 10.3281 99.1422 10.7755 99.7438 11.6773C100.327 12.5725 100.618 13.7397 100.618 15.1772V33.384H95.7624V17.9347C95.7624 17.204 95.7247 16.7443 95.6449 16.556C95.4757 16.0374 95.1512 15.778 94.6673 15.778C94.2157 15.778 93.9006 16.073 93.713 16.6677C93.6139 17.0625 93.5671 17.487 93.5671 17.9347V33.3842H88.7114Z" stroke="#C4151C" stroke-width="0.0880884" stroke-miterlimit="2.613"/>
<path d="M112.398 33.3841L108.962 5.13672H114.27L115.68 25.2176L117.457 5.13672H122.674L118.839 33.3841H112.398Z" fill="#C4151C"/>
<path d="M112.398 33.3841L108.962 5.13672H114.27L115.68 25.2176L117.457 5.13672H122.674L118.839 33.3841H112.398Z" stroke="#C4151C" stroke-width="0.0880884" stroke-miterlimit="2.613"/>
<path d="M124.367 9.30844V5.13672H129.222V9.30844H124.367ZM124.367 33.3841V10.7931H129.222V33.3841H124.367Z" fill="#C4151C"/>
<path d="M124.367 9.30844V5.13672H129.222V9.30844H124.367ZM124.367 33.3841V10.7931H129.222V33.3841H124.367Z" stroke="#C4151C" stroke-width="0.0880884" stroke-miterlimit="2.613"/>
<path d="M135.305 36.1056H140.161V40.277H135.305V36.1056ZM136.664 18.8176H138.859V16.3489C138.859 15.7541 138.821 15.3531 138.746 15.1413C138.558 14.6932 138.229 14.4752 137.759 14.4752C137.326 14.4752 137.026 14.6523 136.856 14.9995C136.73 15.3827 136.664 15.8304 136.664 16.3489V18.8176ZM133.59 9.06011L135.926 4.25195H139.903L141.933 9.06011H138.996L137.759 6.37342L136.349 9.06011H133.59ZM131.808 16.7675C131.808 15.0468 132.193 13.6325 132.964 12.5187C133.98 11.0342 135.578 10.2915 137.764 10.2915C139.851 10.2915 141.449 11.0342 142.559 12.5187C143.33 13.6325 143.715 15.0468 143.715 16.7675V22.9893H136.664V27.8329C136.664 28.4219 136.701 28.8224 136.781 29.0351C136.927 29.459 137.256 29.6712 137.764 29.6712C138.215 29.6712 138.53 29.4707 138.718 29.0703C138.812 28.7638 138.859 28.3515 138.859 27.8329V24.9986H143.715V27.4087C143.715 29.0876 143.33 30.49 142.559 31.6157C141.543 33.1007 139.945 33.8429 137.764 33.8429C135.672 33.8429 134.073 33.1007 132.964 31.6157C132.193 30.5139 131.808 29.1114 131.808 27.4146V16.7675Z" fill="#C4151C"/>
<path d="M135.305 36.1056H140.161V40.277H135.305V36.1056ZM136.664 18.8176H138.859V16.3489C138.859 15.7541 138.821 15.3531 138.746 15.1413C138.558 14.6932 138.229 14.4752 137.759 14.4752C137.326 14.4752 137.026 14.6523 136.856 14.9995C136.73 15.3827 136.664 15.8304 136.664 16.3489V18.8176ZM133.59 9.06011L135.926 4.25195H139.903L141.933 9.06011H138.996L137.759 6.37342L136.349 9.06011H133.59ZM131.808 16.7675C131.808 15.0468 132.193 13.6325 132.964 12.5187C133.98 11.0342 135.578 10.2915 137.764 10.2915C139.851 10.2915 141.449 11.0342 142.559 12.5187C143.33 13.6325 143.715 15.0468 143.715 16.7675V22.9893H136.664V27.8329C136.664 28.4219 136.701 28.8224 136.781 29.0351C136.927 29.459 137.256 29.6712 137.764 29.6712C138.215 29.6712 138.53 29.4707 138.718 29.0703C138.812 28.7638 138.859 28.3515 138.859 27.8329V24.9986H143.715V27.4087C143.715 29.0876 143.33 30.49 142.559 31.6157C141.543 33.1007 139.945 33.8429 137.764 33.8429C135.672 33.8429 134.073 33.1007 132.964 31.6157C132.193 30.5139 131.808 29.1114 131.808 27.4146V16.7675Z" stroke="#C4151C" stroke-width="0.0880884" stroke-miterlimit="2.613"/>
<path d="M146.281 29.7783V15.4309H145.069V11.0412H146.281V6.12695H151.138V11.0408H152.35V15.4307H151.138V27.5216L151.222 28.7943C151.274 29.1008 151.462 29.2538 151.786 29.2538H152.406V33.8438H150.061C148.843 33.8438 147.95 33.6082 147.382 33.1367C146.648 32.5241 146.281 31.4105 146.281 29.7783Z" fill="#C4151C"/>
<path d="M146.281 29.7783V15.4309H145.069V11.0412H146.281V6.12695H151.138V11.0408H152.35V15.4307H151.138V27.5216L151.222 28.7943C151.274 29.1008 151.462 29.2538 151.786 29.2538H152.406V33.8438H150.061C148.843 33.8438 147.95 33.6082 147.382 33.1367C146.648 32.5241 146.281 31.4105 146.281 29.7783Z" stroke="#C4151C" stroke-width="0.0880884" stroke-miterlimit="2.613"/>
<path d="M160.863 33.3841V5.13672H166.533L170.702 21.7942L170.763 5.13672H175.783V33.3841H170.143L165.94 15.9253L165.884 33.3841H160.863Z" fill="#C4151C"/>
<path d="M160.863 33.3841V5.13672H166.533L170.702 21.7942L170.763 5.13672H175.783V33.3841H170.143L165.94 15.9253L165.884 33.3841H160.863Z" stroke="#C4151C" stroke-width="0.0880884" stroke-miterlimit="2.613"/>
<path d="M185.265 28.1163V22.0356L183.911 23.2793C183.347 23.815 183.065 24.4869 183.065 25.2887V28.2932C183.065 29.4951 183.422 30.0965 184.132 30.0965C184.475 30.0965 184.758 29.9194 184.983 29.572C185.171 29.1414 185.265 28.6584 185.265 28.1163ZM189.947 17.4044V33.3842H185.491V31.6518C184.649 33.1131 183.478 33.8437 181.993 33.8437C180.395 33.8437 179.295 33.1485 178.693 31.7635C178.261 30.7443 178.045 29.1414 178.045 26.9497C178.045 25.0407 178.43 23.5324 179.201 22.4186C179.742 21.6174 180.578 20.9103 181.706 20.2917C183.14 19.5903 183.963 19.1249 184.17 18.8892C184.898 18.2706 185.265 17.4339 185.265 16.3734C185.265 15.778 185.19 15.3185 185.044 14.9946C184.875 14.6646 184.569 14.4998 184.132 14.4998C183.305 14.4998 182.891 15.0181 182.891 16.0552V17.8935H178.383V15.8373C178.383 14.2169 178.919 12.8909 179.986 11.8539C181.062 10.8346 182.426 10.3281 184.08 10.3281C186.224 10.3281 187.737 10.8816 188.626 11.9952C189.505 13.0974 189.947 14.9003 189.947 17.4044Z" fill="#C4151C"/>
<path d="M185.265 28.1163V22.0356L183.911 23.2793C183.347 23.815 183.065 24.4869 183.065 25.2887V28.2932C183.065 29.4951 183.422 30.0965 184.132 30.0965C184.475 30.0965 184.758 29.9194 184.983 29.572C185.171 29.1414 185.265 28.6584 185.265 28.1163ZM189.947 17.4044V33.3842H185.491V31.6518C184.649 33.1131 183.478 33.8437 181.993 33.8437C180.395 33.8437 179.295 33.1485 178.693 31.7635C178.261 30.7443 178.045 29.1414 178.045 26.9497C178.045 25.0407 178.43 23.5324 179.201 22.4186C179.742 21.6174 180.578 20.9103 181.706 20.2917C183.14 19.5903 183.963 19.1249 184.17 18.8892C184.898 18.2706 185.265 17.4339 185.265 16.3734C185.265 15.778 185.19 15.3185 185.044 14.9946C184.875 14.6646 184.569 14.4998 184.132 14.4998C183.305 14.4998 182.891 15.0181 182.891 16.0552V17.8935H178.383V15.8373C178.383 14.2169 178.919 12.8909 179.986 11.8539C181.062 10.8346 182.426 10.3281 184.08 10.3281C186.224 10.3281 187.737 10.8816 188.626 11.9952C189.505 13.0974 189.947 14.9003 189.947 17.4044Z" stroke="#C4151C" stroke-width="0.0880884" stroke-miterlimit="2.613"/>
<path d="M192.368 33.3842V10.7932H197.05V13.5863C197.543 12.5725 198.051 11.7717 198.582 11.1824C199.184 10.6107 199.955 10.3281 200.895 10.3281C201.741 10.3281 202.465 10.5755 203.067 11.0703C203.663 11.5948 204.059 12.4312 204.252 13.5863C204.735 12.5017 205.21 11.7008 205.685 11.1824C206.249 10.6107 207.058 10.3281 208.111 10.3281C209.258 10.3281 210.141 10.7755 210.762 11.6773C211.364 12.5725 211.664 13.7397 211.664 15.1772V33.384H206.809V18.2175C206.809 17.4635 206.761 16.9566 206.663 16.6973C206.494 16.0847 206.15 15.778 205.628 15.778C205.121 15.778 204.773 16.1199 204.585 16.8035C204.533 17.0153 204.496 17.204 204.477 17.3752C204.458 17.5574 204.449 17.8404 204.449 18.2175V33.3842H199.593V18.2175C199.593 17.4635 199.546 16.9566 199.457 16.6973C199.287 16.0847 198.935 15.778 198.408 15.778C197.901 15.778 197.553 16.1199 197.369 16.8035C197.314 16.9904 197.275 17.1817 197.252 17.3752C197.233 17.5574 197.224 17.8404 197.224 18.2175V33.3842H192.368Z" fill="#C4151C"/>
<path d="M192.368 33.3842V10.7932H197.05V13.5863C197.543 12.5725 198.051 11.7717 198.582 11.1824C199.184 10.6107 199.955 10.3281 200.895 10.3281C201.741 10.3281 202.465 10.5755 203.067 11.0703C203.663 11.5948 204.059 12.4312 204.252 13.5863C204.735 12.5017 205.21 11.7008 205.685 11.1824C206.249 10.6107 207.058 10.3281 208.111 10.3281C209.258 10.3281 210.141 10.7755 210.762 11.6773C211.364 12.5725 211.664 13.7397 211.664 15.1772V33.384H206.809V18.2175C206.809 17.4635 206.761 16.9566 206.663 16.6973C206.494 16.0847 206.15 15.778 205.628 15.778C205.121 15.778 204.773 16.1199 204.585 16.8035C204.533 17.0153 204.496 17.204 204.477 17.3752C204.458 17.5574 204.449 17.8404 204.449 18.2175V33.3842H199.593V18.2175C199.593 17.4635 199.546 16.9566 199.457 16.6973C199.287 16.0847 198.935 15.778 198.408 15.778C197.901 15.778 197.553 16.1199 197.369 16.8035C197.314 16.9904 197.275 17.1817 197.252 17.3752C197.233 17.5574 197.224 17.8404 197.224 18.2175V33.3842H192.368Z" stroke="#C4151C" stroke-width="0.0880884" stroke-miterlimit="2.613"/>
<path fill-rule="evenodd" clip-rule="evenodd" d="M0 39.3594H212V52.1628H0V39.3594Z" fill="#00AEEF"/>
<path d="M4.44238 47.6216V44.7082C4.44238 44.1004 4.62186 43.6359 4.97935 43.3119C5.31666 43.0054 5.77325 42.8527 6.34895 42.8527C6.91657 42.8527 7.37719 43.0105 7.72918 43.3267C8.07731 43.6413 8.25147 44.1004 8.25147 44.7082V45.3001H6.77195V44.5785C6.77195 44.4243 6.75727 44.3014 6.72516 44.2102C6.65946 44.0657 6.53503 43.9934 6.34895 43.9934C6.17093 43.9934 6.04633 44.063 5.97677 44.2023C5.93915 44.3148 5.92172 44.439 5.92172 44.5785V47.7515C5.92172 47.9457 5.95402 48.0956 6.01953 48.2028C6.08248 48.2938 6.19222 48.3404 6.34895 48.3404C6.52439 48.3404 6.64753 48.2643 6.71708 48.1129C6.75452 48.0005 6.77214 47.88 6.77214 47.7515V46.8102H8.25147V47.6216C8.25147 48.1894 8.08007 48.6392 7.73726 48.9712C7.39463 49.3087 6.93125 49.4773 6.34895 49.4773C5.76793 49.4773 5.3073 49.3112 4.96449 48.9792C4.61654 48.6471 4.44238 48.1947 4.44238 47.6216ZM10.3856 47.7515C10.3856 47.9457 10.4177 48.0956 10.4832 48.2028C10.5462 48.2938 10.6561 48.3404 10.8126 48.3404C10.9881 48.3404 11.1112 48.2643 11.1808 48.1129C11.2184 48.0005 11.2358 47.88 11.2358 47.7515V44.5704C11.2358 44.4164 11.2212 44.2933 11.1889 44.2023C11.1233 44.0577 10.9987 43.9866 10.8126 43.9866C10.6346 43.9866 10.51 44.0549 10.4405 44.194C10.403 44.3067 10.3854 44.4326 10.3854 44.5704L10.3856 47.7515ZM12.5546 43.8059C12.6669 44.0564 12.7232 44.3548 12.7232 44.7003V47.6216C12.7232 48.1839 12.5518 48.6339 12.209 48.9712C11.8664 49.3087 11.4004 49.4773 10.8126 49.4773C10.2316 49.4773 9.771 49.3112 9.42837 48.9792C9.08024 48.6471 8.90608 48.1947 8.90608 47.6216V44.7003C8.90608 44.0938 9.08556 43.6266 9.44305 43.2997C9.78036 42.996 10.2369 42.8446 10.8126 42.8446C11.2546 42.8446 11.632 42.9382 11.9468 43.1272V42.2328H13.0365L13.0325 43.2999L12.5546 43.8059ZM16.8416 44.5785V47.7515C16.8416 47.9457 16.8737 48.0956 16.9392 48.2028C17.0021 48.2938 17.1119 48.3404 17.2686 48.3404C17.444 48.3404 17.5672 48.2643 17.6367 48.1129C17.6744 48.0005 17.6918 47.88 17.6918 47.7515V44.5785C17.6918 44.4243 17.6769 44.3014 17.6448 44.2102C17.5791 44.0657 17.4547 43.9934 17.2686 43.9934C17.0906 43.9934 16.966 44.063 16.8964 44.2023C16.859 44.3148 16.8416 44.439 16.8416 44.5785ZM15.362 47.6216V44.7082C15.362 44.1004 15.5415 43.6359 15.899 43.3119C16.2363 43.0054 16.6929 42.8527 17.2686 42.8527C17.8362 42.8527 18.2969 43.0105 18.649 43.3267C18.9972 43.6413 19.1711 44.1004 19.1711 44.7082V47.6216C19.1711 48.3366 18.8926 48.8667 18.3358 49.2149L18.9047 50.1361L17.7078 50.2578L17.4923 49.8576L17.2767 49.4773C16.9753 49.4773 16.7103 49.4384 16.4802 49.3595C16.2507 49.2793 16.0417 49.1495 15.8682 48.9792C15.5307 48.6471 15.362 48.1947 15.362 47.6216ZM19.8257 47.6216V42.9544H21.3053V47.6377C21.3053 47.8625 21.3254 48.0261 21.3667 48.1277C21.4071 48.2349 21.5288 48.2885 21.7323 48.2885C21.8703 48.2885 21.9788 48.2468 22.0536 48.1639C22.1219 48.0822 22.1555 47.907 22.1555 47.6377V42.9544H23.6348V47.6216C23.6348 48.1894 23.4634 48.6392 23.1208 48.9712C22.778 49.3087 22.3148 49.4773 21.7323 49.4773C21.1513 49.4773 20.6907 49.3112 20.348 48.9792C19.9999 48.6471 19.8257 48.1947 19.8257 47.6216ZM23.5759 49.3755L24.7649 42.9544H26.7262L27.9299 49.3756H26.381L26.243 48.2334H25.2079L25.0553 49.3755H23.5759ZM25.3606 47.0929H26.0984L25.753 43.9505L25.3606 47.0929ZM28.3142 49.3755V42.9544H29.9302L31.119 46.7394L31.1352 42.9544H32.5663V49.3756H30.9585L29.7614 45.4058L29.7454 49.3755H28.3142ZM35.2131 47.6216V44.7082C35.2131 44.1004 35.3926 43.6359 35.7501 43.3119C36.0874 43.0054 36.544 42.8527 37.1197 42.8527C37.6873 42.8527 38.1479 43.0105 38.5001 43.3267C38.8482 43.6413 39.0222 44.1004 39.0222 44.7082V45.3001H37.5427V44.5785C37.5427 44.4243 37.528 44.3014 37.4959 44.2102C37.4302 44.0657 37.3058 43.9934 37.1197 43.9934C36.9417 43.9934 36.8171 44.063 36.7475 44.2023C36.7101 44.3148 36.6925 44.439 36.6925 44.5785V47.7515C36.6925 47.9457 36.7248 48.0956 36.7903 48.2028C36.8532 48.2938 36.963 48.3404 37.1197 48.3404C37.2951 48.3404 37.4183 48.2643 37.4878 48.1129C37.5255 48.0005 37.5429 47.88 37.5429 47.7515V46.8102H39.0222V47.6216C39.0222 48.1894 38.8508 48.6392 38.5082 48.9712C38.1654 49.3087 37.7022 49.4773 37.1197 49.4773C36.5387 49.4773 36.0781 49.3112 35.7354 48.9792C35.3873 48.6471 35.2131 48.1947 35.2131 47.6216ZM39.677 42.9465H41.1562V47.6377C41.1562 47.8625 41.1763 48.0261 41.218 48.1277C41.258 48.2349 41.3801 48.2885 41.5836 48.2885C41.7212 48.2885 41.8299 48.2468 41.9047 48.1639C41.973 48.0822 42.0066 47.907 42.0066 47.6377V42.9465H43.494V47.6216C43.494 48.1839 43.3226 48.6339 42.98 48.9712C42.6371 49.3087 42.1712 49.4773 41.5834 49.4773C41.0024 49.4773 40.5417 49.3112 40.1991 48.9792C39.851 48.6471 39.677 48.1947 39.677 47.6216V42.9465ZM41.3171 42.609C41.325 42.4497 41.3786 42.2904 41.4777 42.1311L41.7829 41.7468C41.8954 41.6156 41.9517 41.4829 41.9517 41.3504C41.9517 41.2581 41.9396 41.1845 41.9128 41.1269C41.882 41.0667 41.8231 41.0359 41.7361 41.0359C41.6651 41.0359 41.6102 41.0693 41.5672 41.135C41.5371 41.2164 41.5213 41.3025 41.5204 41.3893V41.609H40.9247V41.3425C40.9247 41.1229 40.9983 40.9406 41.1483 40.7975C41.2942 40.6529 41.4977 40.582 41.7601 40.582C42.0319 40.582 42.2435 40.6408 42.3947 40.7573C42.5393 40.8806 42.6116 41.0707 42.6116 41.3264C42.6116 41.5152 42.5448 41.6945 42.4109 41.8646L42.0266 42.2757C41.9436 42.3855 41.886 42.4965 41.8539 42.609H41.3171ZM43.8662 49.3755L45.0552 42.9544H47.0166L48.2201 49.3756H46.6712L46.5332 48.2334H45.4982L45.3457 49.3755H43.8662ZM45.6509 47.0929H46.3886L46.0432 43.9505L45.6509 47.0929ZM50.5967 46.434H50.2913V45.4379H50.5965V42.9465H52.7978C53.3882 42.9465 53.8139 43.1098 54.0762 43.4365C54.3012 43.7123 54.4137 44.1219 54.4137 44.668V47.7288C54.4137 48.2749 54.2422 48.6941 53.8996 48.9873C53.5983 49.2457 53.2314 49.3755 52.7976 49.3755H50.5967V46.434ZM52.076 45.4379H52.5273V46.434H52.076V48.2817H52.3425C52.5179 48.2817 52.6585 48.2349 52.7655 48.1439C52.8727 48.0607 52.9262 47.9484 52.9262 47.8064V44.5864C52.9262 44.2223 52.72 44.0415 52.3063 44.0415H52.076V45.4379ZM55.9748 42.9465H57.9363L59.1479 49.3755H57.5907L57.4529 48.2334H56.4179L56.2653 49.3755H54.7858L55.9748 42.9465ZM56.5705 47.0929H57.3083L56.9629 43.9424L56.5705 47.0929ZM56.5907 42.609C56.5986 42.4497 56.6522 42.2904 56.7513 42.1311L57.0565 41.7468C57.169 41.6156 57.2253 41.4829 57.2253 41.3504C57.2253 41.2581 57.2132 41.1845 57.1864 41.1269C57.1556 41.0667 57.0967 41.0359 57.0097 41.0359C56.9387 41.0359 56.8825 41.0693 56.8409 41.135C56.8107 41.2164 56.7949 41.3025 56.7941 41.3893V41.609H56.1984V41.3425C56.1984 41.1229 56.272 40.9406 56.4221 40.7975C56.568 40.6529 56.7715 40.582 57.0337 40.582C57.3055 40.582 57.5171 40.6408 57.6685 40.7573C57.813 40.8806 57.884 41.0707 57.884 41.3264C57.884 41.5152 57.8183 41.6945 57.6845 41.8646L57.3002 42.2757C57.2221 42.3749 57.1635 42.488 57.1277 42.609H56.5907ZM59.5241 49.3755V42.9544H61.1401L62.3289 46.7394L62.3451 42.9544H63.7762V49.3756H62.1684L60.9715 45.4058L60.9553 49.3755H59.5241ZM64.431 47.6216V44.7082C64.431 44.1004 64.6103 43.6359 64.9677 43.3119C65.3052 43.0054 65.7618 42.8527 66.3375 42.8527C66.9051 42.8527 67.3469 42.9624 67.6629 43.1819C68.0472 43.4484 68.24 43.8635 68.24 44.4258V45.1395H66.8356V44.4994C66.8356 44.1621 66.6801 43.9934 66.3682 43.9934C66.2116 43.9934 66.0857 44.0657 65.992 44.2102C65.9376 44.3253 65.9097 44.4512 65.9103 44.5785V47.7515C65.9103 47.9457 65.9424 48.0956 66.0081 48.2028C66.0711 48.2938 66.1808 48.3404 66.3375 48.3404C66.6508 48.3404 66.8088 48.1786 66.8088 47.8572V47.0299H66.2867V45.8409H68.24V49.3755H66.9453V48.8533C66.6735 49.2699 66.288 49.4773 65.7884 49.4773C65.3118 49.4773 64.9543 49.2899 64.7134 48.9163C64.5247 48.6056 64.4308 48.1745 64.4308 47.6216H64.431ZM70.8869 42.9465H72.3663V47.6377C72.3663 47.8625 72.3864 48.0261 72.4279 48.1277C72.4681 48.2349 72.59 48.2885 72.7935 48.2885C72.9311 48.2885 73.0398 48.2468 73.1146 48.1639C73.1831 48.0822 73.2165 47.907 73.2165 47.6377V42.9465H74.7039V47.6216C74.7039 48.1839 74.5325 48.6339 74.1899 48.9712C73.8471 49.3087 73.3811 49.4773 72.7933 49.4773C72.2123 49.4773 71.7518 49.3112 71.409 48.9792C71.0609 48.6471 70.8869 48.1947 70.8869 47.6216V42.9465ZM72.527 42.609C72.5349 42.4497 72.5885 42.2904 72.6876 42.1311L72.9928 41.7468C73.1053 41.6156 73.1616 41.4829 73.1616 41.3504C73.1616 41.2581 73.1495 41.1845 73.1227 41.1269C73.0919 41.0667 73.033 41.0359 72.946 41.0359C72.875 41.0359 72.8201 41.0693 72.7773 41.135C72.7472 41.2164 72.7314 41.3025 72.7305 41.3893V41.609H72.1347V41.3425C72.1347 41.1229 72.2082 40.9406 72.3582 40.7975C72.5043 40.6529 72.7076 40.582 72.97 40.582C73.2418 40.582 73.4534 40.6408 73.6048 40.7573C73.7494 40.8806 73.8215 41.0707 73.8215 41.3264C73.8215 41.5152 73.7547 41.6945 73.6208 41.8646L73.2365 42.2757C73.1535 42.3855 73.0959 42.4965 73.0638 42.609H72.527ZM76.2878 46.8372L75.0841 42.9544H76.6105L77.0215 45.1234L77.4686 42.9544H78.9709L77.7672 46.7312V49.3756H76.2878V46.8372ZM82.065 49.3755L81.085 42.9544H82.5951L82.9994 47.5199L83.5056 42.9544H84.9877L83.8978 49.3756L82.065 49.3755ZM86.2905 42.9465H88.2517L89.4635 49.3755H87.9063L87.7685 48.2334H86.7335L86.5808 49.3755H85.1015L86.2905 42.9465ZM87.4552 41.4723L87.8085 42.5622H87.0629L86.1886 41.4723H87.4552ZM86.8862 47.0929H87.6239L87.2783 43.9424L86.8862 47.0929ZM91.8319 49.3755V42.9544H93.8789C94.4359 42.9544 94.8442 43.0669 95.1041 43.2919C95.3544 43.5222 95.4803 43.9131 95.4803 44.4645C95.4803 44.8784 95.4348 45.1835 95.3423 45.383C95.2298 45.6495 95.005 45.8464 94.6675 45.9749C95.0156 46.0406 95.2646 46.2037 95.4146 46.4676C95.566 46.7301 95.6409 47.0633 95.6409 47.4691C95.6409 48.0448 95.5203 48.4973 95.2793 48.8266C95.005 49.1921 94.555 49.3755 93.9312 49.3755H91.8319ZM93.3111 46.5399V48.2817H93.6165C93.8361 48.2817 93.9848 48.2255 94.0597 48.1129C94.1279 47.9899 94.1613 47.7543 94.1613 47.4061C94.1613 47.1263 94.136 46.9253 94.0839 46.8024C94.0076 46.6269 93.8629 46.5399 93.6486 46.5399H93.3111ZM93.3111 44.0483V45.4968H93.5858C93.7945 45.4968 93.9378 45.4234 94.0169 45.276C94.0718 45.1595 94.0999 44.9828 94.0999 44.7471C94.0999 44.5062 94.0677 44.3295 94.0035 44.217C93.9393 44.1045 93.8174 44.0481 93.6407 44.0481L93.3111 44.0483ZM96.2957 44.7003C96.2957 44.0938 96.475 43.6266 96.8324 43.2997C97.1699 42.996 97.6265 42.8446 98.2022 42.8446C98.7698 42.8446 99.2303 42.9999 99.5825 43.3119C99.9359 43.6251 100.113 44.0883 100.113 44.7003V47.6216C100.113 48.1839 99.9412 48.6339 99.5986 48.9712C99.2558 49.3087 98.7898 49.4773 98.202 49.4773C97.621 49.4773 97.1604 49.3112 96.8178 48.9792C96.4696 48.6471 96.2957 48.1947 96.2957 47.6216V44.7003ZM97.0092 42.5622L97.6759 41.4723H98.81L99.391 42.5622H98.5555L98.2022 41.9503L97.7977 42.5622H97.0092ZM97.775 47.7515C97.775 47.9457 97.8071 48.0956 97.8728 48.2028C97.9358 48.2938 98.0453 48.3404 98.2022 48.3404C98.3775 48.3404 98.5006 48.2643 98.5704 48.1129C98.6078 48.0005 98.6252 47.88 98.6252 47.7515V44.5704C98.6252 44.4164 98.6105 44.2933 98.5784 44.2023C98.5127 44.0577 98.3883 43.9866 98.2022 43.9866C98.0242 43.9866 97.8994 44.0549 97.8299 44.194C97.7924 44.3067 97.775 44.4326 97.775 44.5704V47.7515ZM97.5272 49.9913H98.9077V50.9407H97.5274L97.5272 49.9913ZM102.509 44.194V42.9544H105.902V44.1942H104.944V49.3755H103.465V44.1942L102.509 44.194ZM109.925 42.2328H111.016L111.012 43.2999L110.498 43.8408H110.142L110.134 47.6216C110.134 48.1839 109.963 48.6339 109.62 48.9712C109.277 49.3087 108.811 49.4773 108.223 49.4773C107.642 49.4773 107.182 49.3112 106.839 48.9792C106.491 48.6471 106.317 48.1947 106.317 47.6216V42.9465H107.796V47.6377C107.796 47.8625 107.817 48.0261 107.858 48.1277C107.898 48.2349 108.02 48.2885 108.223 48.2885C108.361 48.2885 108.47 48.2468 108.545 48.1639C108.613 48.0822 108.646 47.907 108.646 47.6377V42.9465L109.925 42.9624V42.2328ZM112.773 49.3755V42.9544H114.252V48.1358H115.86V49.3755H112.773ZM116.338 42.9465H119.625V44.1861H117.817V45.4689H119.401V46.7086H117.818V48.1358H119.696V49.3755H116.338V42.9465ZM116.828 42.5622L117.495 41.4723H118.629L119.206 42.5622H118.37L118.017 41.9503L117.617 42.5622H116.828ZM117.271 49.9913H118.653V50.9407H117.271L117.271 49.9913ZM120.355 49.3755V42.9544H121.971L123.16 46.7394L123.176 42.9544H124.607V49.3756H122.999L121.802 45.4058L121.786 49.3755H120.355ZM125.262 49.3755V42.9544H126.741V45.359H127.591V42.9544H129.071V49.3756H127.591V46.6416H126.741V49.3755H125.262ZM133.197 44.5783V47.7515C133.197 47.9457 133.229 48.0956 133.295 48.2028C133.358 48.2938 133.467 48.3404 133.624 48.3404C133.799 48.3404 133.923 48.2643 133.992 48.1129C134.03 48.0005 134.047 47.88 134.047 47.7515V44.5785C134.047 44.4243 134.032 44.3014 134 44.2102C133.935 44.0657 133.81 43.9934 133.624 43.9934C133.446 43.9934 133.321 44.063 133.252 44.2023C133.214 44.3148 133.197 44.439 133.197 44.5785V44.5783ZM131.717 47.6216V44.7082C131.717 44.1004 131.897 43.6359 132.254 43.3119C132.592 43.0054 133.048 42.8527 133.624 42.8527C134.192 42.8527 134.652 43.0105 135.004 43.3267C135.352 43.6413 135.527 44.1004 135.527 44.7082V47.6216C135.527 48.3366 135.248 48.8667 134.691 49.2149L135.26 50.1361L134.063 50.2578L133.848 49.8576L133.632 49.4773C133.331 49.4773 133.066 49.4384 132.835 49.3595C132.606 49.2793 132.397 49.1495 132.224 48.9792C131.886 48.6471 131.717 48.1947 131.717 47.6216ZM136.181 47.6216V42.9544H137.661V47.6377C137.661 47.8625 137.681 48.0261 137.722 48.1277C137.763 48.2349 137.884 48.2885 138.088 48.2885C138.226 48.2885 138.334 48.2468 138.409 48.1639C138.477 48.0822 138.511 47.907 138.511 47.6377V42.9544H139.99V47.6216C139.99 48.1894 139.819 48.6392 139.476 48.9712C139.133 49.3087 138.67 49.4773 138.088 49.4773C137.507 49.4773 137.046 49.3112 136.703 48.9792C136.355 48.6471 136.181 48.1947 136.181 47.6216ZM141.56 42.9465H143.521L144.733 49.3755H143.175L143.038 48.2334H142.003L141.85 49.3755H140.37L141.56 42.9465ZM141.359 42.5622L142.025 41.4723H143.159L143.736 42.5622H142.901L142.547 41.9503L142.147 42.5622H141.359ZM142.155 47.0929H142.893L142.547 43.9424L142.155 47.0929ZM145.109 49.3755V42.9544H146.725L147.914 46.7394L147.93 42.9544H149.361V49.3756H147.753L146.556 45.4058L146.54 49.3755H145.109ZM152.008 47.6216V44.7082C152.008 44.1004 152.187 43.6359 152.545 43.3119C152.882 43.0054 153.339 42.8527 153.914 42.8527C154.482 42.8527 154.943 43.0105 155.295 43.3267C155.643 43.6413 155.817 44.1004 155.817 44.7082V45.3001H154.337V44.5785C154.337 44.4243 154.323 44.3014 154.29 44.2102C154.225 44.0657 154.1 43.9934 153.914 43.9934C153.736 43.9934 153.612 44.063 153.542 44.2023C153.505 44.3148 153.487 44.439 153.487 44.5785V47.7515C153.487 47.9457 153.519 48.0956 153.585 48.2028C153.648 48.2938 153.758 48.3404 153.914 48.3404C154.09 48.3404 154.213 48.2643 154.282 48.1129C154.32 48.0005 154.337 47.88 154.337 47.7515V46.8102H155.817V47.6216C155.817 48.1894 155.645 48.6392 155.303 48.9712C154.96 49.3087 154.497 49.4773 153.914 49.4773C153.333 49.4773 152.873 49.3112 152.53 48.9792C152.182 48.6471 152.008 48.1947 152.008 47.6216ZM156.471 49.3755V42.9544H157.951V45.359H158.801V42.9544H160.281V49.3756H158.801V46.6416H157.951V49.3755H156.471ZM160.935 42.9465H162.415V47.6377C162.415 47.8625 162.435 48.0261 162.476 48.1277C162.516 48.2349 162.638 48.2885 162.842 48.2885C162.979 48.2885 163.088 48.2468 163.163 48.1639C163.231 48.0822 163.265 47.907 163.265 47.6377V42.9465H164.752V47.6216C164.752 48.1839 164.581 48.6339 164.238 48.9712C163.895 49.3087 163.429 49.4773 162.842 49.4773C162.261 49.4773 161.8 49.3112 161.457 48.9792C161.109 48.6471 160.935 48.1947 160.935 47.6216V42.9465ZM162.575 42.609C162.583 42.4497 162.637 42.2904 162.736 42.1311L163.041 41.7468C163.154 41.6156 163.21 41.4829 163.21 41.3504C163.21 41.2581 163.198 41.1845 163.171 41.1269C163.14 41.0667 163.081 41.0359 162.994 41.0359C162.923 41.0359 162.868 41.0693 162.826 41.135C162.796 41.2164 162.78 41.3025 162.779 41.3893V41.609H162.183V41.3425C162.183 41.1229 162.257 40.9406 162.407 40.7975C162.553 40.6529 162.756 40.582 163.019 40.582C163.29 40.582 163.502 40.6408 163.653 40.7573C163.798 40.8806 163.87 41.0707 163.87 41.3264C163.87 41.5152 163.803 41.6945 163.669 41.8646L163.285 42.2757C163.202 42.3855 163.144 42.4965 163.112 42.609H162.575ZM165.399 49.3755V42.9544H167.015L168.204 46.7394L168.22 42.9544H169.651V49.3756H168.043L166.846 45.4058L166.83 49.3755H165.399ZM170.306 47.6216V44.7082C170.306 44.1004 170.485 43.6359 170.843 43.3119C171.18 43.0054 171.637 42.8527 172.212 42.8527C172.78 42.8527 173.222 42.9624 173.538 43.1819C173.922 43.4484 174.115 43.8635 174.115 44.4258V45.1395H172.71V44.4994C172.71 44.1621 172.555 43.9934 172.243 43.9934C172.087 43.9934 171.96 44.0657 171.867 44.2102C171.813 44.3253 171.785 44.4512 171.785 44.5785V47.7515C171.785 47.9457 171.817 48.0956 171.883 48.2028C171.946 48.2938 172.056 48.3404 172.212 48.3404C172.526 48.3404 172.684 48.1786 172.684 47.8572V47.0299H172.161V45.8409H174.115V49.3755H172.82V48.8533C172.548 49.2699 172.163 49.4773 171.663 49.4773C171.187 49.4773 170.829 49.2899 170.588 48.9163C170.399 48.6056 170.306 48.1745 170.306 47.6216H170.306ZM176.762 49.3755V42.9544H178.241V45.359H179.091V42.9544H180.571V49.3756H179.091V46.6416H178.241V49.3755H176.762ZM182.14 42.9465H184.101L185.313 49.3755H183.756L183.618 48.2334H182.583L182.431 49.3755H180.951L182.14 42.9465ZM182.736 47.0929H183.473L183.128 43.9424L182.736 47.0929ZM182.756 42.609C182.764 42.4497 182.817 42.2904 182.916 42.1311L183.222 41.7468C183.334 41.6156 183.391 41.4829 183.391 41.3504C183.391 41.2581 183.378 41.1845 183.352 41.1269C183.321 41.0667 183.262 41.0359 183.175 41.0359C183.104 41.0359 183.048 41.0693 183.006 41.135C182.976 41.2164 182.96 41.3025 182.959 41.3893V41.609H182.364V41.3425C182.364 41.1229 182.437 40.9406 182.587 40.7975C182.733 40.6529 182.936 40.582 183.199 40.582C183.471 40.582 183.682 40.6408 183.834 40.7573C183.978 40.8806 184.049 41.0707 184.049 41.3264C184.049 41.5152 183.983 41.6945 183.85 41.8646L183.465 42.2757C183.387 42.3748 183.329 42.4879 183.293 42.609H182.756ZM185.736 49.3755V42.9544H187.215V49.3756L185.736 49.3755ZM191.393 44.5783V47.7515C191.393 47.9457 191.425 48.0956 191.49 48.2028C191.553 48.2938 191.663 48.3404 191.82 48.3404C191.995 48.3404 192.118 48.2643 192.188 48.1129C192.225 48.0005 192.243 47.88 192.243 47.7515V44.5785C192.243 44.4243 192.228 44.3014 192.196 44.2102C192.13 44.0657 192.006 43.9934 191.82 43.9934C191.642 43.9934 191.517 44.063 191.448 44.2023C191.41 44.3148 191.393 44.439 191.393 44.5785V44.5783ZM189.913 47.6216V44.7082C189.913 44.1004 190.093 43.6359 190.45 43.3119C190.788 43.0054 191.244 42.8527 191.82 42.8527C192.387 42.8527 192.848 43.0105 193.2 43.3267C193.548 43.6413 193.722 44.1004 193.722 44.7082V47.6216C193.722 48.3366 193.444 48.8667 192.887 49.2149L193.456 50.1361L192.259 50.2578L192.043 49.8576L191.828 49.4773C191.527 49.4773 191.262 49.4384 191.031 49.3595C190.802 49.2793 190.593 49.1495 190.419 48.9792C190.082 48.6471 189.913 48.1947 189.913 47.6216ZM194.377 47.6216V42.9544H195.856V47.6377C195.856 47.8625 195.877 48.0261 195.918 48.1277C195.958 48.2349 196.08 48.2885 196.284 48.2885C196.421 48.2885 196.53 48.2468 196.605 48.1639C196.673 48.0822 196.707 47.907 196.707 47.6377V42.9544H198.186V47.6216C198.186 48.1894 198.015 48.6392 197.672 48.9712C197.329 49.3087 196.866 49.4773 196.284 49.4773C195.703 49.4773 195.242 49.3112 194.899 48.9792C194.551 48.6471 194.377 48.1947 194.377 47.6216ZM199.755 42.9465H201.717L202.928 49.3755H201.371L201.233 48.2334H200.198L200.046 49.3755H198.566L199.755 42.9465ZM199.554 42.5622L200.221 41.4723H201.355L201.932 42.5622H201.097L200.743 41.9503L200.343 42.5622H199.554ZM200.351 47.0929H201.089L200.743 43.9424L200.351 47.0929ZM203.305 49.3755V42.9544H204.92L206.109 46.7394L206.125 42.9544H207.557V49.3756H205.949L204.752 45.4058L204.736 49.3755H203.305Z" fill="white"/>
</svg>
