<svg width="29" height="29" viewBox="0 0 29 29" fill="none" xmlns="http://www.w3.org/2000/svg">
	<rect x="0.199951" y="0.0986328" width="28" height="28" rx="14" fill="#0059B2" />
	<path fill-rule="evenodd" clip-rule="evenodd" d="M22.0076 7.43215C22.8621 7.66221 23.5359 8.33597 23.766 9.1905C24.1932 10.7517 24.1768 14.0054 24.1768 14.0054C24.1768 14.0054 24.1768 17.2428 23.766 18.8039C23.5359 19.6585 22.8621 20.3322 22.0076 20.5623C20.4464 20.9731 14.2018 20.9731 14.2018 20.9731C14.2018 20.9731 7.97364 20.9731 6.39605 20.5458C5.54152 20.3158 4.86776 19.642 4.6377 18.7875C4.22687 17.2428 4.22687 13.989 4.22687 13.989C4.22687 13.989 4.22687 10.7517 4.6377 9.1905C4.86776 8.33597 5.55796 7.64578 6.39605 7.41571C7.95721 7.00488 14.2018 7.00488 14.2018 7.00488C14.2018 7.00488 20.4464 7.00488 22.0076 7.43215ZM17.4063 13.8749L12.2134 16.8657V10.884L17.4063 13.8749Z" fill="white" />
</svg>
