<svg width="29" height="29" viewBox="0 0 29 29" fill="none" xmlns="http://www.w3.org/2000/svg">
	<g clip-path="url(#clip0_470_485)">
		<path fill-rule="evenodd" clip-rule="evenodd" d="M12.9579 0.19043H15.4314C18.8285 0.19043 20.8137 0.689386 22.576 1.63422C24.3382 2.57904 25.7289 3.95914 26.6631 5.72143C27.608 7.48369 28.1069 9.46889 28.1069 12.866V15.329C28.1069 18.7261 27.608 20.7113 26.6631 22.4735C25.7183 24.2358 24.3382 25.6266 22.576 26.5608C20.8137 27.5056 18.8285 28.0046 15.4314 28.0046H12.9684C9.57132 28.0046 7.58612 27.5056 5.82385 26.5608C4.0616 25.6159 2.6709 24.2358 1.73669 22.4735C0.791859 20.7113 0.292908 18.7261 0.292908 15.329V12.866C0.292908 9.46889 0.791859 7.48369 1.73669 5.72143C2.68152 3.95914 4.0616 2.56843 5.82385 1.63422C7.57553 0.689386 9.57132 0.19043 12.9579 0.19043Z" fill="#0059B2" />
		<path opacity="0.12" fill-rule="evenodd" clip-rule="evenodd" d="M28.1068 14.9238V15.3303C28.1068 18.7274 27.6079 20.7126 26.663 22.4749C25.7182 24.2371 24.3381 25.6278 22.5758 26.5621C20.8136 27.5069 18.8284 28.0059 15.4312 28.0059H12.9683C10.1886 28.0059 8.35422 27.6718 6.81378 27.0327L4.27417 24.4176L28.1068 14.9238Z" fill="#0059B2" />
		<path fill-rule="evenodd" clip-rule="evenodd" d="M4.55618 24.5086C5.857 24.6524 7.48335 24.2814 8.63813 23.7208C13.6525 26.4924 21.491 26.3601 26.2356 23.3236C26.4196 23.0476 26.5916 22.7605 26.7511 22.463C27.6994 20.6943 28.2002 18.7018 28.2002 15.2923V12.8204C28.2002 9.41087 27.6994 7.41845 26.7511 5.64976C25.8135 3.88107 24.4178 2.49595 22.6491 1.54768C20.8803 0.599407 18.8879 0.0986328 15.4784 0.0986328H12.9959C10.092 0.0986328 8.20693 0.464175 6.62308 1.16203C6.53651 1.23956 6.45155 1.31841 6.36839 1.39859C1.72165 5.878 1.36842 15.5878 5.3087 20.8624C5.3131 20.8702 5.31796 20.878 5.32332 20.886C5.93064 21.781 5.34462 23.3473 4.42832 24.2635C4.27915 24.4021 4.33242 24.4873 4.55618 24.5086Z" fill="white" />
		<path d="M11.7154 9.61914H6.26935V10.7869H10.0486L6.32238 15.4049C6.20562 15.5747 6.12073 15.734 6.12073 16.0949V16.3922H11.2588C11.5136 16.3922 11.726 16.1799 11.726 15.9251V15.2987H7.75559L11.2588 10.9037C11.3119 10.84 11.4075 10.7232 11.45 10.6701L11.4712 10.6383C11.6729 10.341 11.7154 10.0862 11.7154 9.77841V9.61914Z" fill="#0059B2" />
		<path d="M18.6473 16.3922H19.4223V9.61914H18.2545V15.9994C18.2545 16.2117 18.4244 16.3922 18.6473 16.3922Z" fill="#0059B2" />
		<path d="M14.6558 11.127C13.1908 11.127 12.0018 12.3159 12.0018 13.781C12.0018 15.246 13.1908 16.435 14.6558 16.435C16.1208 16.435 17.3098 15.246 17.3098 13.781C17.3204 12.3159 16.1314 11.127 14.6558 11.127ZM14.6558 15.3415C13.7959 15.3415 13.0952 14.6408 13.0952 13.781C13.0952 12.9211 13.7959 12.2204 14.6558 12.2204C15.5157 12.2204 16.2163 12.9211 16.2163 13.781C16.2163 14.6408 15.5263 15.3415 14.6558 15.3415Z" fill="#0059B2" />
		<path d="M22.8724 11.084C21.3968 11.084 20.1972 12.2836 20.1972 13.7592C20.1972 15.2349 21.3968 16.4345 22.8724 16.4345C24.348 16.4345 25.5477 15.2349 25.5477 13.7592C25.5477 12.2836 24.348 11.084 22.8724 11.084ZM22.8724 15.341C22.0019 15.341 21.3012 14.6404 21.3012 13.7699C21.3012 12.8993 22.0019 12.1987 22.8724 12.1987C23.743 12.1987 24.4436 12.8993 24.4436 13.7699C24.4436 14.6404 23.743 15.341 22.8724 15.341Z" fill="#0059B2" />
		<path d="M16.6954 16.3923H17.3218V11.2754H16.2283V15.9359C16.2283 16.18 16.4406 16.3923 16.6954 16.3923Z" fill="#0059B2" />
	</g>
	<defs>
		<clipPath id="clip0_470_485">
			<rect x="0.199951" y="0.0986328" width="28" height="28" rx="14" fill="white" />
		</clipPath>
	</defs>
</svg>
